<svg xmlns="http://www.w3.org/2000/svg" viewBox="0 0 132.56 132.59"><defs><style>.cls-1{fill:#6073ff;}</style></defs><title>behance</title><g id="Camada_2" data-name="Camada 2"><g id="Camada_20" data-name="Camada 20"><g id="Camada_19" data-name="Camada 19"><path class="cls-1" d="M66.25,0A66.3,66.3,0,1,1,0,66.13,66.17,66.17,0,0,1,66.25,0ZM40.69,91c3.77,0,7.55.08,11.32,0A14.74,14.74,0,0,0,65.5,80.48c1.81-6,.12-11-5.5-14.84-2.52-1.7-.67-2.41.23-3.47,3.37-4,4.48-8.3,2.37-13.19a11.92,11.92,0,0,0-11.45-7.61c-7.3-.16-14.61,0-21.91-.1-2,0-2.8.52-2.79,2.65q.11,22.28,0,44.55c0,1.89.64,2.59,2.54,2.54C32.89,90.91,36.79,91,40.69,91ZM92.25,73.56h0c3.65,0,7.31-.09,11,0,2.23.08,3-.67,2.83-3-1-11.16-11.53-17.62-20.92-16.58C74.29,55.25,68,63.8,69,75A17.91,17.91,0,0,0,83.91,90.78c9.38,1.5,17-2.19,20.32-9.89,1.88-4.31,1.7-4.74-3-4.51-2.12.11-4.8-1.46-6.22,2-1.69,4.18-4.73,5.76-8.59,5.27-3.36-.42-6.39-3.5-7.39-7.26-.55-2.09,0-2.93,2.23-2.88C84.93,73.63,88.59,73.56,92.25,73.56ZM87.59,43.73c-3,0-6.07.06-9.1,0s-2.21,2.06-2.13,3.56-1.1,4,2.08,4h18.2a1.78,1.78,0,0,0,2-1.22c1.38-3.74-.26-6.29-4.1-6.28Z"/><path class="cls-1" d="M44.1,81.36c-8,0-8,0-8-8,0-4.67,0-4.68,4.76-4.64,3,0,6.06-.08,9.07.14,4,.29,6.62,3.05,6.4,6.5-.23,3.72-2.71,5.94-6.79,6C47.74,81.39,45.92,81.36,44.1,81.36Z"/><path class="cls-1" d="M43.61,51.33a51.14,51.14,0,0,1,5.81,0A4.46,4.46,0,0,1,53.7,56a4.56,4.56,0,0,1-4,5.17c-3.84.73-7.73.12-11.59.25a1.69,1.69,0,0,1-1.93-2,2.16,2.16,0,0,0,0-.36C35.53,51.25,35.53,51.25,43.61,51.33Z"/><path class="cls-1" d="M87,68.85c-1.45,0-2.92.05-4.37,0-1,0-2.45.54-3.06-.52-.76-1.32.32-2.56,1.07-3.61A8.2,8.2,0,0,1,95,66.12c.79,1.79.49,2.79-1.71,2.73s-4.13,0-6.2,0Z"/></g></g></g></svg>