<svg xmlns="http://www.w3.org/2000/svg" viewBox="0 0 946.3 820.83"><defs><style>.cls-1{fill:#ff910d;}.cls-2{fill:#6073ff;}.cls-3{fill:#e27a0a;}</style></defs><title>eu</title><g id="Camada_2" data-name="Camada 2"><g id="Camada_14" data-name="Camada 14"><polygon class="cls-1" points="511.46 310.85 511.46 285.06 545.84 271.04 580.22 264.29 623.05 267.16 654.18 282.92 680.5 315.15 634.66 285.78 602.43 280.77 566.62 282.2 511.46 310.85"/><path class="cls-1" d="M634.41,286.45l-31.95-5-35.66,1.42-56,29.12V284.59l35-14.24,34.47-6.76,42.92,2.87,31.4,15.83,29.33,35.82Zm-11.55-18.6L580.27,265l-34.16,6.69-34,13.85V309.7l54.13-28.12.14-.07,36.11-1.44,32.23,5,.14,0,42.27,27.08-23.45-28.72Z"/><polygon class="cls-1" points="431.36 309.42 425.03 332.34 384.68 320.54 343.85 309.42 319.5 315.15 283.69 339.74 310.64 299.39 375.24 299.39 414.32 304.4 431.36 309.42"/><path class="cls-1" d="M310.27,298.69h65.06l39.19,5,17.7,5.21-6.7,24.27-41-12-40.66-11.08-24,5.66-38.71,26.58Zm74.61,21.18,39.67,11.6,5.95-21.57-16.27-4.8-39-5H311l-24.72,37,32.8-22.53,24.77-5.88Z"/><polygon class="cls-1" points="729.92 491.63 725.63 445.3 712.74 389.82 697.69 330.91 694.11 264.29 654.18 217.02 737.64 210.57 774.33 267.87 770.75 371.07 752.85 454.11 729.92 491.63"/><path class="cls-1" d="M724.94,445.46,712.06,390,697,330.94l-3.57-66.37-40.66-48.14,84.83-6.56.41,0,37,57.84-3.6,103.53-17.91,83L729.42,493.8ZM770.05,371l3.58-103L737.28,211.3l-81.68,6.31,39,46.23.15.18,3.57,66.71,15,58.93,12.91,55.57,4.1,44.23,21.76-35.62Z"/><polygon class="cls-1" points="227.82 473.44 216.36 412.41 204.9 412.41 181.26 390.49 169.08 371.07 176.25 328.76 189.86 248.53 233.37 173.12 267.93 96.69 357.52 57.29 432.55 20.04 480.66 4.29 542.98 0.7 595.98 9.3 654.18 39.38 687.66 78.78 709.87 123.9 745.36 162.58 760.73 189.8 745.36 206.28 737.64 210.57 654.18 217.02 626.78 195.53 640.39 183.35 610.31 161.15 585.95 152.55 572.26 160.43 576.64 185.5 575.21 214.87 562.32 237.07 530.74 271.04 498.57 285.78 454.88 296.84 403.21 299.39 351.73 283.63 338.12 289.72 271.51 356.23 245.72 405.52 233.37 434.77 227.82 473.44"/><path class="cls-1" d="M215.78,413.12H204.62L180.78,391l-12.43-19.79,20.81-122.79,0-.13,43.54-75.46L267.29,96.4l.11-.25,89.81-39.49,75.12-37.28L480.44,3.62,542.94,0H543l53.08,8.61,58.53,30.21,33.58,39.5,22.25,45.18,35.42,38.61,15.72,27.79-15.72,16.85-8,4.51-83.62,6.46-.27,0-28.27-22.17,13.59-12.16L610,161.78l-24-8.46-13,7.48,4.3,24.58,0,.08-1.45,29.61-13,22.36-31.67,34.09-32.51,14.94-43.83,11.08-51.66,2.55h-.12l-51.36-15.72-13.24,5.93-66.45,66.34-25.71,49.14L234.05,435l-6.14,42.79ZM403.3,298.68l51.4-2.52,43.58-11,32-14.68,31.43-33.81,12.77-22,1.42-29.12-4.46-25.48,14.4-8.28,24.66,8.7,31,22.81-13.63,12.2,26.53,20.8,83-6.41,7.49-4.17,14.94-16L744.78,163l-35.43-38.62L687.08,79.17,653.73,39.94l-58-30L542.94,1.41,480.79,5,432.86,20.67,357.8,57.93,268.46,97.22,234,173.47l-43.45,75.31L169.82,370.92l12,19.11,23.36,21.68h11.77l10.78,57.44,4.95-34.48,12.43-29.48,25.79-49.29.05-.1,66.69-66.58,14.05-6.34Z"/><path class="cls-1" d="M484.59,819.74A111.31,111.31,0,0,0,504.12,818l31.13-5.54a111.64,111.64,0,0,0,50.21-22.84l23-18.48a111.22,111.22,0,0,0,15.78-15.51l47.68-57.28A111.49,111.49,0,0,0,688,672.56l5.71-12.78a213.53,213.53,0,0,0,15.62-51.7l21.13-125.76-2.76-.47L706.52,607.61a210.59,210.59,0,0,1-15.41,51l-5.71,12.78a108.58,108.58,0,0,1-15.67,25.15l-47.68,57.28A108.28,108.28,0,0,1,606.67,769l-23,18.48a108.68,108.68,0,0,1-49,22.26l-31.12,5.55a108.88,108.88,0,0,1-26.92,1.4l-32.93-2.4A108.56,108.56,0,0,1,420,809.79l-10.85-3.31A108.79,108.79,0,0,1,363.68,779l-51.85-52.46a180.75,180.75,0,0,1-32.61-45.21L263.1,649.6a62.87,62.87,0,0,1-5.86-17.43L229.92,480.74l-2.77.49,27.33,151.44a65.78,65.78,0,0,0,6.12,18.2l16.12,31.73a183.24,183.24,0,0,0,33.12,45.91L361.69,781a111.61,111.61,0,0,0,46.59,28.19l10.85,3.32A111.72,111.72,0,0,0,443.58,817l32.93,2.4C479.2,819.64,481.9,819.74,484.59,819.74Z"/><path class="cls-1" d="M291.46,820.47a1.4,1.4,0,0,0,2.08-.24c7-10.23,10.4-36.18,13.73-54.11,3.88-20.92-1.23-41.45-3.53-47.6l-2.63,1c2.22,5.94,7.17,25.81,3.4,46.1-3.24,17.47-6.47,43.5-13.27,53a1.37,1.37,0,0,0,.22,1.82Z"/><path class="cls-2" d="M588.25,337.23c6.22,6.1,4.52,24-7,30.86-7.57,4.54-19,4.1-25.25-2.8-3.13-3.45-3.92-7.47-2.81-12.63C563,344.25,579.84,335.83,588.25,337.23Z"/><path class="cls-2" d="M554.43,366.7c-3.54-3.9-4.59-8.5-3.3-14.48l.15-.69.53-.46c10.4-8.91,27.64-17.43,36.79-15.91l.65.11.47.46c3.26,3.2,4.76,8.93,4,15.34-1,8.09-5.22,15.13-11.4,18.83A24.32,24.32,0,0,1,570,373.18,20.72,20.72,0,0,1,554.43,366.7Zm.67-12.9c-.77,4.24,0,7.37,2.45,10.07,5.8,6.38,16.25,6.23,22.61,2.42,5.07-3,8.58-8.91,9.38-15.72.56-4.71-.33-9-2.31-11.35C579.51,338.54,564.35,346.08,555.1,353.8Z"/><path class="cls-2" d="M344.18,355.47c5.21,4.79.34,28-16.83,33.66-11.13,3.69-24.24,1.7-25.52-4.64C299.54,373.14,336.68,348.56,344.18,355.47Z"/><path class="cls-2" d="M304.16,390.49a8.51,8.51,0,0,1-4.39-5.58c-1.78-8.82,13.79-21.25,24-27,6.06-3.41,16.94-8.46,21.81-4h0c2.6,2.4,3.35,7.55,2,13.78-1.9,8.82-8.05,19.6-19.61,23.43a39,39,0,0,1-12.1,1.95C311.33,393.08,307.13,392.21,304.16,390.49Zm21.7-28.92c-12.68,7.14-22.94,17.65-22,22.5a4.41,4.41,0,0,0,2.37,2.78c4.48,2.6,13.07,2.72,20.42.29,9.88-3.28,15.24-13,16.82-20.33,1.07-5,.43-8.7-.75-9.79h0a3.6,3.6,0,0,0-2.44-.67C337.45,356.35,332.5,357.83,325.86,361.57Z"/><path class="cls-1" d="M561.57,373.29a26.94,26.94,0,0,0-13.29,1.54l-4,1.52a4.81,4.81,0,0,1-6-6.63c10.26-20.71,29.92-34.23,51.29-35.29,21.7-1.09,42.61,10.88,52.08,23.24,3.63,4.73,5.06,9.08,4,12.26-1.26,3.9-6.17,8.17-28.36,8.17C604.93,378.1,587.13,376.77,561.57,373.29Zm28.15-36.06c-20.36,1-39.1,13.93-48.92,33.74a2,2,0,0,0,2.51,2.76l4-1.52a29.81,29.81,0,0,1,14.68-1.7c67.19,9.14,79.63,3,81.08-1.45.72-2.23-.59-5.76-3.6-9.69-8.44-11-27.57-22.2-47.2-22.2C591.39,337.17,590.56,337.19,589.72,337.23Z"/><path class="cls-1" d="M536.24,363c1.45-3.39,15.18-33.27,48.08-39.86,26-5.2,52.94,6.13,68.71,28.88l2.3-1.6c-16.4-23.67-44.49-35.45-71.56-30-34.3,6.87-48.59,38-50.11,41.5Z"/><path class="cls-1" d="M413.1,377.2l2.44-1.38c-1.94-3.44-20-33.75-57.2-37.18-35.72-3.29-59,21.48-61.49,24.31l2.09,1.87c2.43-2.73,24.78-26.55,59.14-23.38C393.83,344.73,411.23,373.88,413.1,377.2Z"/><path class="cls-1" d="M304.48,394a51,51,0,0,0-6.86-2l-1-.2-.11-1c-.65-5.84,2.8-13.84,9-20.88,10.89-12.38,27.54-19.65,45.67-19.95,21.63-.4,42.76,11.42,55.11,30.75a4.63,4.63,0,0,1-.07,5.18,4.56,4.56,0,0,1-4.74,1.92l-3.91-.78a12.88,12.88,0,0,0-5.66.15C359.32,395.39,340,398,327.3,398A59.66,59.66,0,0,1,304.48,394Zm93.63-9.78L402,385a1.77,1.77,0,0,0,1.87-.75,1.85,1.85,0,0,0,0-2.09c-11.84-18.51-32-29.79-52.7-29.46-24.64.41-38.71,13.42-43.62,19-5.33,6.06-8.46,12.74-8.38,17.73a57.77,57.77,0,0,1,6.19,1.93c10.36,3.65,24.56,8.65,85.8-6.95a15.49,15.49,0,0,1,6.9-.19Z"/><path d="M568.35,357.71a6.46,6.46,0,1,0-6.46-6.46A6.47,6.47,0,0,0,568.35,357.71Z"/><path d="M568.35,345.49a5.76,5.76,0,1,1-5.76,5.76,5.77,5.77,0,0,1,5.76-5.76m0-1.4a7.16,7.16,0,1,0,7.16,7.16,7.17,7.17,0,0,0-7.16-7.16Z"/><circle cx="320.52" cy="371.07" r="6.46"/><path d="M320.52,365.31a5.76,5.76,0,1,1-5.76,5.76,5.77,5.77,0,0,1,5.76-5.76m0-1.41a7.17,7.17,0,1,0,7.16,7.17,7.17,7.17,0,0,0-7.16-7.17Z"/><polygon class="cls-3" points="654.18 217.02 680.5 242.09 714.26 229.55 754.61 237.07 745.36 210.57 654.18 217.02"/><polygon class="cls-3" points="351.73 278.62 300.6 271.04 263.99 242.09 296.92 278.62 351.73 278.62"/><path class="cls-3" d="M228.35,390.17c12-14.36,24.21-29.2,29.92-47,1.93-6,3.06-12.25,4.79-18.33,5.86-20.65,18.53-39.81,18.6-61.27"/><polygon class="cls-1" points="348.15 285.23 286.55 296.84 216.36 412.41 227.82 473.44 255 380.73 323.38 304.44 348.15 285.23"/><path class="cls-1" d="M215.62,412.28,286,296.48l.17-.27L350.88,284l-27,20.9-68.27,76.17-28,95.37ZM287,297.47,217.1,412.55,228,470.44l26.36-89.9,0-.16L323,303.88l22.47-17.42Z"/><polygon class="cls-3" points="534.95 140.38 483.53 210.57 380.38 244.95 471.3 204.84 534.95 140.38"/><polygon class="cls-3" points="405.63 281.48 370.36 275.75 348.15 260.35 371.07 270.92 405.63 281.48"/><polygon class="cls-3" points="272.94 98.83 272.94 146.82 313.35 189.08 277.96 140.38 272.94 98.83"/><polygon class="cls-3" points="669.04 206.99 683.37 169.03 641.11 122.47 673.34 168.31 669.04 206.99"/><polygon class="cls-3" points="737.64 195.53 745.36 173.12 697.69 126.05 737.64 173.12 737.64 195.53"/><polygon class="cls-3" points="670.48 113.16 644.62 47.26 561.18 50.84 636.09 55.86 670.48 113.16"/><polygon class="cls-3" points="587.39 63.74 572.26 113.16 572.26 160.43 587.39 63.74"/><polygon class="cls-3" points="627.53 120.79 605.47 94.28 585.65 101.75 606.59 100.73 627.53 120.79"/><polygon class="cls-3" points="551.11 210.57 539.18 244.95 495.67 260.35 534.95 242.09 551.11 210.57"/><polygon class="cls-3" points="749.26 260.35 764.31 289.72 760.73 315.15 760.73 292.94 749.26 260.35"/><polygon class="cls-3" points="730.1 432.62 714.26 372.75 721.52 349.86 721.52 371.07 730.1 432.62"/><polygon class="cls-3" points="756.78 251.4 772.04 264.29 745.36 251.4 756.78 251.4"/><polygon class="cls-3" points="718.47 260.35 704.39 287.75 707.72 264.29 697.69 260.35 718.47 260.35"/><polygon class="cls-3" points="228.35 349.86 210.63 373.89 193.44 372.75 183.41 331.62 194.87 362.48 209.19 363.9 228.35 349.86"/><polygon class="cls-3" points="300.6 235.46 263.99 222.03 258.62 173.12 267.21 217.02 300.6 235.46"/><path class="cls-2" d="M546,450.79c-24.88-25-37.38-58.72-33.43-90.23,3-23.75,15.05-46.38,34-63.74a113.48,113.48,0,0,1,68.06-29.71c55.45-4,106.83,35.4,119.43,91.65l.1.7a124,124,0,0,1-26.73,84.06c-18.47,23.12-43.67,37.66-70.95,41a100,100,0,0,1-11.84.71C596.23,485.2,568.1,473,546,450.79ZM615.21,275.5c-47.27,3.41-88.69,41.23-94.32,86.1-3.63,29,8,60.08,31,83.25,23.38,23.47,53.8,34.88,83.51,31.28,52.69-6.38,93.13-58.32,90.3-115.88C713.92,308.22,666.45,271.81,615.21,275.5Z"/><path class="cls-2" d="M262.8,472c-24.43-24.32-36.75-57.55-33-88.89,2.77-22.9,14-44.74,31.67-61.5s40.25-27,63.54-28.73c51.81-3.89,99.71,34.18,111.45,88.5l.09.67c3,59.86-37.86,114-91.12,120.67a87.85,87.85,0,0,1-11,.69C308.81,503.43,283.19,492.32,262.8,472ZM325.69,301.3c-43.83,3.27-82.26,39.66-87.49,82.84-3.48,28.78,7.93,59.4,30.54,81.91,21.44,21.35,49,31.68,75.69,28.34,48.89-6.13,86.41-56.13,83.78-111.55C417.23,332.78,373.23,297.78,325.69,301.3Z"/><polygon class="cls-2" points="516.44 381.23 508.3 368.09 488.66 365.29 447.98 369.5 438.16 373.7 432.55 389.82 425.03 359.79 442.37 362.48 508.3 359.68 517.57 355.68 516.44 381.23"/><path class="cls-2" d="M422.22,357.22l20.27,3.15,65.33-2.78,12-5.18-1.57,35.72L507,370l-18.41-2.63-40.1,4.15-8.67,3.71-7.63,21.9Zm87.35,8.93,5.07,8.18.68-15.39-6.54,2.82-66.32,2.83h-.21l-14.41-2.24,5,20.12,3.6-10.33,11-4.7,41-4.25.26,0Z"/><polygon class="cls-2" points="732.73 368.09 745.36 363.88 745.36 349.86 729.92 355.47 732.73 368.09"/><path class="cls-2" d="M727.47,354.12l20-7.27V365.4l-16.28,5.43Zm15.78-1.26-10.87,4,1.9,8.54,9-3Z"/><polygon class="cls-2" points="425.03 426.35 414.32 421.39 414.32 412.98 431.36 405.52 425.03 426.35"/><path class="cls-2" d="M412.21,422.74V411.6l22.49-9.84-8.36,27.51Zm4.21-8.39v5.7l7.3,3.37,4.3-14.14Z"/><polygon class="cls-2" points="527.75 418.86 536.35 412.98 536.35 405.97 525.13 405.97 527.75 418.86"/><path class="cls-2" d="M522.56,403.86h15.9v10.23l-12.15,8.3Zm11.69,4.21H527.7l1.48,7.27,5.07-3.47Z"/><path class="cls-1" d="M488.93,510l2.81,0c-.09-8.63,6.27-16,14.49-16.86a16,16,0,0,1,11.95,4A16.94,16.94,0,0,1,524,509.31l2.8-.1A20,20,0,0,0,520,495,18.82,18.82,0,0,0,506,490.31C496.3,491.28,488.83,499.92,488.93,510Z"/><path class="cls-1" d="M412.65,517.17l2.8-.06a18.29,18.29,0,0,1,34.27-9.66l2.43-1.4a21.09,21.09,0,0,0-39.5,11.12Z"/><path class="cls-1" d="M536.43,517.39c4.82-4.46,10-9.27,11.86-15.81,2.1-7.43-.79-15-4.18-21.57-6-11.55-13.35-22.52-20.08-33.65-1.41-2.33,2.23-4.44,3.63-2.13,8.19,13.56,19.24,27.6,24,42.83,4.35,13.94-2.27,24.08-12.26,33.3-2,1.84-5-1.13-3-3Z"/><path class="cls-1" d="M404.74,523.9c-6.77-8.81-12.08-19.1-11.4-30.51.72-11.88,9.06-20.46,15.91-29.49,1.61-2.13,5.27,0,3.63,2.12-6.07,8-14.13,16-15.2,26.47-1.13,11,4.19,20.83,10.69,29.29,1.65,2.14-2,4.24-3.63,2.12Z"/><path class="cls-1" d="M348.16,630.28c.5,0,9.94-.11,14.79-7.82,4-6.4,3.08-15-2.29-21l-2.09,1.87c4.54,5.05,5.36,12.31,2,17.66-4,6.41-12,6.5-12.41,6.5h0v2.81Z"/><path class="cls-1" d="M542.55,671.46l-32.4,11c-8.63,2.94-16.44,7.08-25.61,4.53-1.8-.5-3.63-1.17-5.46-1.52-2-.38.52-.24-1.33-.09-3.25.27-6.44,1.75-9.67,2.25a45.92,45.92,0,0,1-13.14.17c-5.39-.85-10.95-3.31-16.17-4.89-3.9-1.18-8.09-2.06-11.82-3.72-11.22-5-21.88-12-32.65-17.93a2.13,2.13,0,0,1-1-2.37l5.25-22.57c.5-2.15,3.41-1.83,4.06,0s1.45,7,2.94,8.27c-1.08-.94-.29-.88,1.13-2.21l4.22-3.94c4.64-4.34,5.71-3,9,2.07.66,1,2.66,2.91,1,2.09a14.41,14.41,0,0,0,3.55.6c3.2.55,8.27.4,11.13,1.9,2.57,1.34-.59.69-.51.81-.4-.59.79-4.22.95-5,.33-1.8.25-5.62,1.87-6.92a2.18,2.18,0,0,1,3,0c1.89,1.74,2.93,11.44,2.26,13.54-.76,2.43-.64-1.16-1.4-.48.24-.22,1.92.24,2.25.24,3.16.05,6.45.7,9.59,1l10.68,1.15c1.52.17,6.11-.16,7.33.79s-.84.12-.7,1c-.15-1,.79-2.9,1.06-3.88l2.26-8.29a2.15,2.15,0,0,1,2-1.55h.49a2.14,2.14,0,0,1,2,1.55l1.78,7.63c.15.63,1.33,3.72,1,4.25s-2.06.08-1.47-.69,5.81-1,6.87-1.17l11.29-1.92,9.53-1.63c.59-.1,2.33-.72,2.89-.49,1.53.64-.64.25-.38,1.19-.68-2.49.57-6.76.79-9.34.13-1.58-.11-3.7,1.12-4.9a2.13,2.13,0,0,1,2.55-.32c2.36,1.79,2.3,6.49,2.87,9.16a15.71,15.71,0,0,1,.65,3.06c-.38.58-1.95-.35-1.63-.69.89-1,4.33-1.3,5.62-1.68,3.72-1.12,9.24-1.7,12.56-3.76-1.58,1-.85,1.17-.36-.69.25-1,.9-1.83,1.16-2.8a9.17,9.17,0,0,0,.17-4.51c-.24-2.12,3-2.81,3.92-1.07l4.88,9.1c.57,1.07,2.49,3.19.77,2.64s3.19-1.86,4.2-1.86c1.34,0,1.65-1.44.4.67a3.45,3.45,0,0,0,.3-1c.34-1.85,1.06-3.7,1.58-5.5l2.68-9.34a2.16,2.16,0,0,1,2-1.54l.48,0a2,2,0,0,1,1.81,1c1,2.26,2.72,4.9,3.17,7.3l.79,1.82c.65,1.12,0,1.12-2.05,0,.08-.33,1.9-.88,2.11-1,1-.73,6.48-4,7.65-3.76-.11,2.4-.41,2.94-.88,1.6L569,627.4c-.75-1.09-1-2.59-1.74-3.65s1.56.32-.91-.39c-1.61-.47-3.3-.76-4.94-1.13s-3.52-.75-5.26-1.2c-5-1.28-10-2.81-15-4.21L533,614.54a14.86,14.86,0,0,0-2.53-.71c-.65-.07,2-.68.16.17-5,2.28-9.72,5.81-14.89,7.53-4.48,1.5-5.59-2.6-9.43-4.94-12.47-7.57-25.45,2-28,15-.42,2.21-3.42,1.79-4.05,0-2.82-7.89-10-20.23-20-17.42-5.52,1.55-7.46,6.37-11.29,9.79-1.77,1.59-2.27,1.93-4.36.49-1.65-1.13-3-3.94-4.39-5.4-3.56-3.64-7.28-3.06-11.67-.54-2.25,1.29-3.95,3-6.28,4A92.45,92.45,0,0,1,400.79,628c-6.55,1.57-11.4,1.93-17.84.58-3.9-.82-13.83-2.85-8.69-9.22,2.94-3.64,10.57-5.38,14.59-7.22l21.48-9.82c10.42-4.77,21.56-8,32.36-11.87,4.91-1.73,9.78-3.73,14.85-5,6.25-1.5,11.41,1.42,17.43,3.43a34.41,34.41,0,0,0,4.5,1.5c-.21,0-1.33,1,.26-.38,2.95-2.59,7.85-4.26,11.3-6.14s7.5-3.2,11.27-2.61c4.76.75,9.89,3.53,14.4,5.14L540.63,595c11.09,3.95,22,8.41,33.48,11.2,14.16,3.45,28.28,7,42.55,9.92l-2.58,2.59-8.47-27.26c-.81-2.59,3.25-3.7,4-1.12l8.47,27.26a2.12,2.12,0,0,1-2.58,2.59c-21.21-4.37-42.35-9.11-62.75-16.38l-45.52-16.23c-1.82-.65-3.69-1.52-5.57-2-.27-.07-.53-.24-.8-.29,1.76.27,0,.19-.5.25a23.28,23.28,0,0,0-4.08.65c-5.05,1.43-10.26,6.84-15.74,8.21-4.58,1.15-12.35-3.09-16.7-4.7-3-1.12-2.49-.9-6.39.15-1.51.41-2.94.89-4.42,1.42l-22.9,8.08c-4.15,1.47-11.41,3.87-14.12,5-5.56,2.28-11,5-16.45,7.52l-11,5c-2.71,1.23-6.55,2.24-8.9,4.06-2.05,1.6-2.17,1.84.7,2.86a48.55,48.55,0,0,0,6.12,1.29c.48.1,4.47.71,2.58.7,5.11,0,10.79-1.77,15.6-3.49,3.58-1.29,7.7-2.22,11.07-4,2.11-1.11,6.51-4.91,10.42-5.89,4.79-1.2,7.72.24,11.05,3.69.93,1,3.84,3.39,4,4.84s-1.43,1.7-1.65.59c-.07-.41,1.45-2,1.69-2.26,5.87-7.41,14.85-12.9,23.89-7.28,6.39,4,10.69,11.57,13.16,18.51h-4.05c3.16-16.31,20.81-27,35.48-16.6a15.53,15.53,0,0,1,3.55,3c1.1,1.64,1.82.94-.37,1.37,2.24-.44,4.89-2.47,6.91-3.49,3.08-1.56,7.52-5.07,11.09-5.11,4.09,0,9.39,2.6,13.3,3.7,4.37,1.23,8.73,2.57,13.12,3.69,3.57.91,9.75.84,12.62,3.25,1.73,1.45,4.67,7.51,3.54,9.78-1,1.93-9.51,6-11.64,6s-2.25-1.12-3.11-2.67a49.64,49.64,0,0,1-2-4.61,11.55,11.55,0,0,1-.94-2.17c-.32-2-1.39-.33.67-.46l2-1.55c-1.71,6-1.88,16.29-8.46,18.31-3.23,1-5.49,2.44-7.78-.29-2.66-3.17-4.3-8-6.26-11.68l3.92-1.06c.38,3.4,0,8.2-2.52,10.91s-8.22,3.15-11.48,4.12c-2.52.75-8.59,4-11.09,1.88-1.07-.91-1.1-3.56-1.35-4.72a50.53,50.53,0,0,1-1.09-5.11c-.16-1.52-1.35-2.68.15-1.54l2.55-.33c.88-.86-.17-1.36.29-.13a10.51,10.51,0,0,1-.23,2.66l-.5,6c-.16,1.88.11,4-1.52,5.22-1.17.89-4,.8-5.29,1l-12,2-11.12,1.89c-1.3.23-3.76,1.17-5.11.77-4-1.17-4.19-10.9-5-14.28l2,1.54h-.49l2-1.54c-.92,3.38-1.51,12.75-5.18,14.27-1.36.56-4.08-.31-5.43-.45l-12.05-1.3-10.77-1.17c-1.25-.13-3.63,0-4.69-.82-1.47-1.18-1.25-3.58-1.46-5.29l-.75-6.35a7.62,7.62,0,0,1-.25-2c.32-1.46-1-1.2.21-.11h3c.68-.55-.34,2.62-.55,3.74-.35,1.89-.43,4.15-1.11,5.94-.78,2.05-.9,2.62-3.24,2.8-3.5.27-8-1.36-11.43-1.94-2.36-.41-4.53-.38-6.33-1.92-1.1-.94-1.9-2.88-2.69-4.08a13.87,13.87,0,0,1-1.55-2.35c.22-.92,2.11-.69,2.05.29-.1,1.48-6.88,6.8-8.28,7.73-6.26,4.14-7.7-5.49-9.2-9.7h4.06l-5.26,22.57-1-2.38L426.16,674c7.38,4.06,18.41,6.41,27.63,9.09,3.49,1,8.43,1.08,12.8.62,3.43-.36,8.45-2.85,12.53-2.55,5,.35,9.73,3.32,14.35,2.58,4-.63,8.18-2.79,12-4.08l36-12.26c2.57-.88,3.68,3.18,1.12,4.05Z"/><path class="cls-1" d="M560.65,397.7a30.14,30.14,0,0,0,5.77-.55l-.54-2.75a26.59,26.59,0,0,1-19-3.39,25.73,25.73,0,0,1-9.5-10.87l-2.54,1.19a28,28,0,0,0,25.85,16.37Z"/><path class="cls-1" d="M847.09,317.27l-39.24.68L945.3,190.1l1,.82L887,288.35l38.16,0L790.92,412l-1.51-1.07Z"/><path class="cls-1" d="M99.21,328.41l39.24.68L1,201.23l-1,.82,59.31,97.43-38.16,0L155.39,423.14l1.51-1.08Z"/></g></g></svg>