<svg xmlns="http://www.w3.org/2000/svg" viewBox="0 0 133.27 129.95"><defs><style>.cls-1{fill:#6073ff;}.cls-2{fill:#222e5b;}</style></defs><title>git_1</title><g id="Camada_2" data-name="Camada 2"><g id="Camada_20" data-name="Camada 20"><g id="Camada_19" data-name="Camada 19"><path class="cls-1" d="M24.34,67.38c1.28,17.25,10.36,26.39,30,28.69a15.81,15.81,0,0,0-4,8.4c-.12.71-.73.75-1.24,1-7.63,3-13.83.93-18.2-6C28.77,96.11,26,93.59,22,92.78c-1.47-.31-3.45-.71-4.12.78s1.22,2.3,2.33,3a15.64,15.64,0,0,1,6.58,8.07c2.75,8,10.38,11.15,19,10.29.56-.06,1.12-.12,1.67-.2,2.56-.37,2.56-.38,2.58,2.26,0,2.91.09,5.83.1,8.74,0,3.55-2,5-5.37,3.8a65.69,65.69,0,0,1-34.34-27.21A63.32,63.32,0,0,1,.3,61.35C2.64,37.05,14.76,19,36.32,7.4A63.45,63.45,0,0,1,75,.58a65.85,65.85,0,0,1,55.73,48.5c6.19,23.69.8,44.89-15.63,63.09A63.47,63.47,0,0,1,88.4,129.56c-3.28,1.14-5.26-.3-5.26-3.76,0-5.88,0-11.77,0-17.65,0-4.43-1-8.55-4.26-12,2.79-.54,5.45-1,8.07-1.6,12.55-3.07,20.74-11.31,21.74-26.1-.06-1.71-.53-3.43.22-5.1a2.34,2.34,0,0,1,1.72-.5c1.15,0,1.5-.61,1.58-1.68.15-2.12.2-2.17,2.37-2.34,1.22-.1,1.71-.67,1.55-1.83a21.31,21.31,0,0,1-.24-3.66c0-1.13-.48-1.61-1.6-1.6-1.83,0-3.67,0-5.51,0a6.93,6.93,0,0,1-2.31-.21c-1.8-1.71-2.88-4-4.31-5.94-.35-.48-.12-1.08,0-1.63a24.58,24.58,0,0,0,0-13.1c-.66-2.58-1.07-2.91-3.76-2.64C95,28.55,92,30,89,31.54a2.62,2.62,0,0,0-.59.33c-3.23,2.91-6.78,2.76-10.88,1.93A58.15,58.15,0,0,0,52,34.48a4.62,4.62,0,0,1-4-.65,40.32,40.32,0,0,0-10.55-5.09c-4.9-1.44-6.12-.67-7,4.35A23.19,23.19,0,0,0,31,43.73a2.72,2.72,0,0,1-.58,2.94C29,48.12,28.4,50.14,26.86,51.5c-2.5.51-5,.13-7.53.24-.56,0-1.12,0-1.68,0-1,0-1.56.41-1.55,1.49,0,1.34,0,2.69,0,4,0,1.06.47,1.45,1.51,1.54,2.25.17,2.27.21,2.51,2.59.09.85.38,1.29,1.29,1.42,2.56.35,2.56.38,2.78,3.05C24.23,66.37,24.34,66.87,24.34,67.38Z"/><path class="cls-1" d="M44.57,108.69c-.15.89-.78,1.06-1.47,1.06s-1.32-.18-1.3-1,.73-1,1.43-1A1.22,1.22,0,0,1,44.57,108.69Z"/><path class="cls-1" d="M48.14,109.16c-.57-.1-1.31-.1-1.27-.94s.78-1,1.44-1.1,1.3.12,1.28.93S48.82,109,48.14,109.16Z"/><path class="cls-1" d="M34.39,105.55c0,.61-.37.9-.88.84A1.6,1.6,0,0,1,32,104.73c0-.55.4-.8.92-.69A1.77,1.77,0,0,1,34.39,105.55Z"/><path class="cls-1" d="M37.8,107c.67.15,1.35.39,1.31,1.21s-.73.92-1.35.8-1.35-.45-1.33-1.24S37.19,107,37.8,107Z"/><path class="cls-1" d="M30.86,101.67c0,.48-.15,1-.69.92a1.52,1.52,0,0,1-1.36-1.45c-.06-.48.13-.89.71-.88C30.42,100.28,30.72,100.9,30.86,101.67Z"/><path class="cls-1" d="M27,96.89A1.18,1.18,0,0,1,28.09,98c0,.44-.13.78-.63.72a1.18,1.18,0,0,1-1.18-1.15C26.24,97.15,26.43,96.88,27,96.89Z"/><path class="cls-1" d="M24.55,96c-.54-.09-1-.33-1-.93a.58.58,0,0,1,.72-.53c.54.07,1,.32,1,.92C25.27,95.81,25,96,24.55,96Z"/><path class="cls-2" d="M117.19,57.38a22.73,22.73,0,0,1-.24-4.66c.08-1.18-.37-1.53-1.53-1.51-2.9,0-5.8,0-8.71,0a4,4,0,0,0-2.26-.48H29.8a3.12,3.12,0,0,0-2.24.5c-3.35,0-6.7.06-10,0-1.07,0-1.53.27-1.46,1.41.08,1.39,0,2.79,0,4.19,0,2.88-.18,2.51,2.36,2.44,1.31,0,1.75.35,1.7,1.7-.08,2.63-.25,2.44,2.28,2.34,1.42-.06,1.82.43,1.77,1.8,0,.75-.65,1.84.64,2.29.73,0,1.46,0,2.18-.08.92-.1,1.36.19,1.23,1.18-.05.38.05.79,0,1.17-.22,1.35.35,1.67,1.66,1.65,6.94-.06,13.89-.07,20.84,0,1.38,0,1.83-.32,1.76-1.73-.12-2.27,0-2.38,2.12-2.24,1.53.1,2.16-.37,1.88-1.91s.27-2.52,2.09-2.17c.22,0,.45,0,.67,0,1.07.18,1.34-.3,1.3-1.31-.08-1.84,0-3.7,0-5.54,0-.91.17-1.32,1.19-1.28,1.9.08,3.81.1,5.71,0,1.12,0,1.28.38,1.23,1.35-.08,1.62.08,3.26-.05,4.87s.35,2.2,1.91,1.91,2.53.23,2.16,2.07c-.32,1.63.35,2.29,2,2,1.84-.37,2.37.51,2.07,2.16-.27,1.5.34,1.86,1.82,1.84,8.23-.08,16.47,0,24.7,0,.53,0,1.12.26,1.59-.21a.58.58,0,0,0,.15-.29c.17-1.07-.48-2.44.31-3.15s2.12-.14,3.21-.27a1.22,1.22,0,0,0,.46-.25c.59-1.17,0-2.47.4-3.65l.2-.11a14.12,14.12,0,0,1,1.84,0c1.37.14,1.9-.38,1.84-1.8-.09-2.41-.23-2.33,2.24-2.22C116.94,59.37,117.36,58.62,117.19,57.38Zm-63.5,1.89-1.31,0v0l0,0,0,0h0c.18,3.91.17,3.92-4,4v0h0c0,.65,0,1.32,0,2,.12,1.31,0,2.2-1.78,2.07-2.25-.16-2.26,0-2.26-2.23,0-.61,0-1.21,0-1.82h0v0h-4v0h0a19.41,19.41,0,0,0,.06,2.16c.21,1.46-.31,2-1.82,1.88-2.25-.12-2.15,0-2.27-2.27-.09-1.51.42-2,1.88-1.83a17.1,17.1,0,0,0,2.15.06v0h0c0-.1,0-.2,0-.31,0-3.9,0-3.91,4-3.7v0h0a13,13,0,0,0,0-2c-.22-1.61.27-2.22,2-2.16,1.54.05,2.27.34,2,2a18.87,18.87,0,0,0-.06,2.13h0v0h4v0h0c0-.44,0-.88,0-1.31,0-3,.07-3.06,3.05-2.78.7.07.94.31,1,1C56.74,59.17,56.69,59.25,53.69,59.27Zm55.09,0-.27,0h0c-.16,0-.33,0-.49,0-2.77.07-2.85.07-2.86,2.77,0,1.75-1.14,1.21-2,1.23a4,4,0,0,0,.6-.15.8.8,0,0,0-.6.15h-1.32c-.84.18-.62.86-.7,1.42-.13.87.38,1.83-.36,2.62H97.1c-.77-.87-.34-1.92-.34-2.86,0-1.56-1.09-1.11-1.87-1.11S93,62.91,93,64.47c0,1,.43,2-.34,2.86h0a23.14,23.14,0,0,0-2.5,0c-1.24.14-1.49-.43-1.47-1.54,0-2.53,0-2.53,2.5-2.52H92.7c.16-1.25-.3-2.54.22-3.75a.82.82,0,0,1,.12-.25l3.69,0h0c.16-1.29-.31-2.62.26-3.87h0a.55.55,0,0,1,.08-.15h3.7c.61.6.35,1.37.3,2-.1,1.29.32,1.84,1.67,1.69a2.14,2.14,0,0,1,1.75.26h0a1.6,1.6,0,0,1,.31,0h0c.16-1.33-.36-2.72.34-4h3.69A4.75,4.75,0,0,1,108.78,59.24Z"/><path class="cls-2" d="M48.34,59.29H44.29v4.05h4.05V59.29Z"/><path class="cls-2" d="M100.46,59.25l-2.31.06h0c-.37,0-.76,0-1,.39a.87.87,0,0,0-.07.17,2.73,2.73,0,0,0,.08,2,3,3,0,0,0,.72,1.08,1.82,1.82,0,0,0,.56.37h2.33v-4a1.63,1.63,0,0,1-.31,0Z"/></g></g></g></svg>