<svg xmlns="http://www.w3.org/2000/svg" viewBox="0 0 132.34 132.31"><defs><style>.cls-1{fill:#6073ff;}</style></defs><title>instagram</title><g id="Camada_2" data-name="Camada 2"><g id="Camada_20" data-name="Camada 20"><g id="Camada_19" data-name="Camada 19"><path class="cls-1" d="M66.21,0A66.15,66.15,0,1,1,0,65.27,66.14,66.14,0,0,1,66.21,0Zm.36,111.73v-.22c4.76,0,9.52.09,14.27,0a62.2,62.2,0,0,0,9.66-.76c10-1.83,16.65-7.62,19.38-17.58,1.19-4.35,1.24-8.81,1.29-13.26.08-8,.11-15.94,0-23.9,0-3.89-.22-7.8-.64-11.67A23.93,23.93,0,0,0,105.71,32c-4.71-6-11.13-8.78-18.56-9.28-4.91-.32-9.83-.41-14.75-.45q-9.59-.07-19.17.12a80.92,80.92,0,0,0-10.09.69C32.34,24.69,24.83,32,22.84,42.74A81.54,81.54,0,0,0,22,57c-.05,8,0,15.94.12,23.9a70.66,70.66,0,0,0,.86,10.48,22.55,22.55,0,0,0,10.44,15.86,27.94,27.94,0,0,0,14.37,4C54,111.52,60.29,111.6,66.57,111.73Z"/><path class="cls-1" d="M30,67c.1-5.95.19-11.89.33-17.84a25.17,25.17,0,0,1,1.17-7.51A14.59,14.59,0,0,1,43.39,31.33a59.46,59.46,0,0,1,10-.81q13.65-.15,27.3,0a49.93,49.93,0,0,1,9.39.85c7,1.45,11.3,6.08,12.32,13.26a86,86,0,0,1,.69,11q.12,12.74-.06,25.47a52.67,52.67,0,0,1-.88,9.39,14.75,14.75,0,0,1-13,12.23,80.15,80.15,0,0,1-10.16.69q-11.13.16-22.24,0c-3.92,0-7.86-.18-11.76-.58A15.42,15.42,0,0,1,33.89,97a15.78,15.78,0,0,1-3.24-8.41c-.35-3.93-.47-7.89-.58-11.84-.09-3.26,0-6.53,0-9.79Zm13.66,0A23,23,0,1,0,66.45,44,23,23,0,0,0,43.62,67ZM95.8,43.12a5.4,5.4,0,1,0-5.37,5.42A5.44,5.44,0,0,0,95.8,43.12Z"/><path class="cls-1" d="M66.46,81.82a14.84,14.84,0,1,1,15-14.54A14.76,14.76,0,0,1,66.46,81.82Z"/></g></g></g></svg>