<svg xmlns="http://www.w3.org/2000/svg" viewBox="0 0 172 172"><defs><style>.cls-1{fill:#6073ff;}</style></defs><title>likedn_1</title><g id="Camada_2" data-name="Camada 2"><g id="Camada_14" data-name="Camada 14"><path class="cls-1" d="M86,0a86,86,0,1,0,86,86A86,86,0,0,0,86,0ZM47.73,36.36a11.64,11.64,0,1,1,.54,23.28A11.42,11.42,0,0,1,36.68,48,11.37,11.37,0,0,1,47.73,36.36Zm12.12,95.73c0,2.55-.93,3.57-3.49,3.51-5.21-.1-10.42-.16-15.61,0-3.21.12-4.27-1.08-4.22-4.25.15-9.64.06-19.28.06-28.93h0c0-9.64.08-19.28,0-28.92,0-3.15,1.06-4.38,4.25-4.27,5,.17,10.1.12,15.15,0,2.64-.06,3.89.7,3.88,3.61Q59.75,102.48,59.85,132.09Zm75.52.54c0,1-1.88,2.71-3,2.79-4.26.34-8.58,0-12.87.2-3.15.14-3.88-1.34-3.85-4.16.11-9,.14-18.09,0-27.14a49.75,49.75,0,0,0-1.12-10.48c-1.24-5.32-4.66-7.84-9.83-8-5.82-.15-9.77,2.24-11.24,7.52a40.25,40.25,0,0,0-1.24,10q-.24,14,0,28.06c0,3.26-1.13,4.35-4.28,4.19-4-.19-8,.19-12-.2-1.18-.12-3.12-2-3.13-3.09-.19-19.94-.12-39.87-.16-59.81,0-2.37,1-3.3,3.28-3.24a89.89,89.89,0,0,0,10.12,0c3.91-.33,5.88.84,5.22,5a15.82,15.82,0,0,0,.21,2.86c9.54-9.12,20.13-9.33,31-5.94,8.62,2.68,12.06,10,12.44,18.2C135.67,103.79,135.45,118.22,135.37,132.63Z"/></g></g></svg>