<svg xmlns="http://www.w3.org/2000/svg" viewBox="0 0 349 329.54"><defs><style>.cls-1{fill:#5fbcd2;}.cls-2{fill:#87cddd;}.cls-3{fill:#2d89a0;}.cls-4{fill:#174450;}.cls-5{fill:#236879;}</style></defs><title>octa</title><g id="Camada_2" data-name="Camada 2"><g id="Camada_17" data-name="Camada 17"><path class="cls-1" d="M277.72,31.9l42.74,200.91c-16.81-6.69-31.87-12.63-46.88-18.65Q208.32,188,143.12,161.7c-4.4-1.78-13.39-2.36-4.27-10.32q66.74-58.3,133.38-116.72C273.46,33.59,275.21,33.14,277.72,31.9Z"/><path class="cls-2" d="M270.09,22.73l-145,126.87c-13-42.1-25.31-82.2-37.63-122.3-.38-1.24-.44-2.58-.8-3.83C82.12,7.45,82.5,9.79,98.89,7.09c25.92-4.27,52.23-1.35,77.68-5.49C210.61-3.94,239.9,5.31,270.09,22.73Z"/><path class="cls-3" d="M138,329.54c-3.05-50.25-6-97.94-8.8-145.65-.88-15.09.87-16.25,15-10.37,29.17,12.12,57.94,25.57,87.39,36.49,22.93,8.5,45,19.4,68.53,26.35,2.59.77,6.52.67,6.93,4.77.58,5.82-4.39,7-8.08,8.83-31.47,15.64-63,31.11-94.53,46.67C182.72,307.34,161.05,318.11,138,329.54Z"/><path class="cls-4" d="M2.35,194.3c36-8.93,71.31-17.69,106.62-26.41,7.49-1.85,8.68,2.77,9,8.7,1,16.89,2.31,33.76,3.38,50.65,1.68,26.43,3.26,52.87,4.89,79.31.23,3.8,1.87,8.5-2.24,10.65-4.67,2.45-6.4-3-8.64-5.38-27.08-29-55.94-56.21-82-86.24C24,214.71,11.72,206.18,2.35,194.3Z"/><path class="cls-5" d="M0,183.49C24.22,128.05,47.37,75.05,71,20.87,79.2,28.42,79.36,38,82,46.11c10.52,33,20.16,66.22,30.38,99.3,2,6.39,2.28,10.16-6,12.08C71.88,165.53,37.54,174.25,0,183.49Z"/><path class="cls-2" d="M327.31,212.54q-17.1-80.19-34.19-160.36l2.75-1.39c11.89,15.67,22.63,32.41,35.95,46.76,17.51,18.86,21.86,38,12,62.28-6.77,16.68-9.59,35-14.18,52.52Z"/><path class="cls-4" d="M194.84,315.36c27.14-17.78,58.3-29.9,87.68-45.48,3.54-1.87,7.56-5.22,11.54-1.71.49.44-3.22,6-5.33,9-11.68,16.37-26,28.37-47.19,30.38C225.47,309,210.53,317.62,194.84,315.36Z"/></g></g></svg>