<svg xmlns="http://www.w3.org/2000/svg" viewBox="0 0 305.52 301.21"><defs><style>.cls-1{fill:#f9c47d;}.cls-2{fill:#8bd9f6;}.cls-3{fill:#050606;}.cls-4{fill:#060707;}.cls-5{fill:#070a0a;}.cls-6{fill:#070808;}.cls-7{fill:#8cd9f6;}.cls-8{fill:#070807;}.cls-9{fill:#090a0a;}.cls-10{fill:#070707;}.cls-11{fill:#fafbfb;}.cls-12{fill:#8fdaf5;}.cls-13{fill:#8edaf6;}.cls-14{fill:#8ddaf6;}</style></defs><title>renascer</title><g id="Camada_2" data-name="Camada 2"><g id="Camada_17" data-name="Camada 17"><g id="renascer"><path class="cls-1" d="M181.84,246.3c.82,12.76.55,25.39-3.7,37.65h0q42.54,0,85.09.09c19.41,0,28.27-10.4,25-29.31q-3.73-21.34-7.48-42.69c-3-17.11-6-34.22-9.08-51.81-12.87,6.14-25.82,9-39.47,8.33,4.3,13.72,4.15,26.74-5.88,38.28-5.3,6.1-7.15,6.15-12.29-.09-11.6-14.11-11.39-29-2.71-44.32h0c-6.17-2.26-12.26-4.82-18.54-6.7-5.66-1.69-11.46-3-17.53-1.69-3,.66-4.54,1.69-5.06,5.17-1.73,11.72-3.73,23.43-6.19,35-1.42,6.71-.69,14-4.86,20.06C173.94,219.83,180.85,230.9,181.84,246.3Zm44.74-30.78c7.57-20.68,27.36-25.3,44.93-22.32,2.34.39,3.05,1.74,2.64,4.13-2.83,16.57-20.88,32.44-37.33,32.72C222.85,228.67,221.76,228.69,226.58,215.52Zm-56.14-9.8c-5.95-12.21-5.3-13.23,8.45-13.27,19.32-.07,32.71,10.15,37.44,28.32,1.34,5.18.33,7.78-5.58,8.62-16.43,2.32-29.92-4.83-39.1-21.43C171.24,207.22,170.81,206.48,170.44,205.72Z"/><path class="cls-2" d="M152.34,240.21A26.72,26.72,0,0,1,140,242.82c-35.12-.26-70.26,1.18-105.36-.82a32.61,32.61,0,0,1-14-3.87c-4-2.2-5.54-5.63-5.4-10h0c-4.63,10.34-5.57,21.2-4.91,32.37,1.19,20.26,12.63,31.21,32.56,29.9,7.64-.5,15.31-.71,22.93-1.4,23-2.1,46-1.24,68.83,1.46,13.82,1.63,28.4-4.69,32.26-15.38,4.62-12.83,4.1-25.88.72-38.9-1.26-4.86-4.76-5.59-9-4.11a37.49,37.49,0,0,0-4.53,2.26C156.66,237.18,154.91,238.9,152.34,240.21Z"/><path class="cls-3" d="M172.07,18.64c13.24-.14,26.48,0,39.72-.06,2.32,0,5.53.39,5.39-2.83-.14-3.41-3.55-2.23-5.66-2.25-11.74-.1-23.49-.16-35.24,0-3.49.06-4.76-.77-4.83-4.54-.07-4,1.57-4.37,4.85-4.34,17.94.13,35.88,0,53.83.08,8.24,0,12.48,4.16,12.78,12.55.18,5.12,0,10.25,0,15.38,0,12,0,11.81-11.85,12.08-5.76.13-10.81.37-9.12-7.86.29-1.42.17-3.18-2.07-3.14-1.94,0-2.4,1.47-2.56,3.05a6.87,6.87,0,0,0,0,1.92c1.08,5.48-1.83,6.28-6.43,6-5.75-.32-11.54.14-17.29-.15-4.31-.21-5.53,1.52-5.42,5.63.24,9.39-.23,18.8.21,28.18.2,4.23-1.15,5.79-5,6.89C172.5,88.35,166.13,95.75,164,106.81q-1,5-1.84,10c-2.1,12.18-4.14,24.38-6.31,36.55-.37,2.06-.76,4.11,1.88,4.46,2.22.29,2.56-1.69,2.81-3.47s.66-3.35.95-5c2.43-13.85,4.59-27.76,7.34-41.55,2.44-12.25,10.79-18.6,23.07-18.57,19.49,0,39,0,58.46,0,11.67,0,20.49,7.13,22.58,18.5,2.31,12.58,4.37,25.21,6.52,37.82,1.44,8.4,2.73,16.82,4.36,25.19.38,2-.12,5.71,3.33,5,3.22-.65,1.47-3.83,1.39-6a7.78,7.78,0,0,0-.11-1.27c-3.51-20.38-7-40.76-10.57-61.12-1.76-9.93-7.13-17.34-16.59-21.11-3.27-1.31-3.91-3-3.86-6.14.18-9.82-.09-19.65.14-29.47.1-4.25-.93-6.72-5.64-6-4.1.62-4.38-1.7-4.31-4.89.15-7.69.13-15.38,0-23.07C247.5,6.12,241.51.18,230.83.07c-9.61-.1-19.23,0-28.84,0-7.69,0-15.38-.13-23.07,0-14.53.29-12.11-2.88-12.53,13.06C166.28,17.46,168.06,18.68,172.07,18.64ZM248.7,49.5c3.06-.07,4,.81,3.93,3.91q-.28,13.44,0,26.9c.07,3.06-.81,4.27-3.91,3.88C234,82.34,219.59,86.6,205,86.89c-4.25.09-6.91-3.76-11.14-3.13C192.88,83.9,193,82,193,81c0-9.39.12-18.79-.08-28.18-.06-3.2,1.52-3.31,3.92-3.28,8.75.07,17.51,0,26.26,0C231.62,49.57,240.16,49.7,248.7,49.5Z"/><path class="cls-3" d="M8.63,289.62c9.14,10,20.72,12.5,33.77,11.05a449.55,449.55,0,0,1,97.09-.1c5.5.58,11.1,1.29,16.52-.52a42.43,42.43,0,0,1,14.43-1.84c35.24.5,70.48.44,105.72.2,20.39-.14,32-13.89,28.83-33.93-3.4-21.25-7.31-42.43-11.08-63.62-.37-2.07.2-5.7-3.33-4.94-3.19.69-1.69,3.76-1.31,6,3.73,21.85,7.54,43.68,11.19,65.55a22.57,22.57,0,0,1-22.24,26.1l-87.12-.19c-6.55,0-13.1,0-20.36,0l7.4-9.39h0c-1.47-2.06-.3-4.09.08-6.11,2.43-12.84,3.15-25.68.67-38.63-1.75-9.2-6.49-16-14.72-20.43-2-1.08-4.4-1.82-5-4.48-8.45-2.12-8.42-2.12-6.85-11.14,1.13-6.52,2.16-13,3.25-19.56.36-2.2,1.95-5.22-1.52-5.76-3.62-.56-2.74,3.12-3.13,5.12-1.69,8.79-3.06,17.64-4.75,26.43-1,5.21.63,7.44,6.15,8.36,11.25,1.88,22.5,10.1,23.94,23.93a146.86,146.86,0,0,1-.15,31.16c-1.71,16.06-19.38,24.69-31,23.34A489.65,489.65,0,0,0,37.73,296c-10.35,1.08-18.7-2.68-25.82-9.89-1.48-1.5-2.7-5.08-5.35-2.69C3.72,286,7.09,287.93,8.63,289.62Z"/><path class="cls-3" d="M164.17,218.78c8.23,4.44,13,11.23,14.72,20.43,2.48,12.95,1.76,25.79-.67,38.63-.38,2-1.55,4.05-.08,6.11,4.25-12.26,4.52-24.89,3.7-37.65-1-15.4-7.9-26.47-22.72-32C159.77,217,162.17,217.7,164.17,218.78Z"/><path class="cls-4" d="M16.38,223.47c2.85-2,4.64-3.11,7.81.37,6.39,7,18.53,8.67,24,1.77,6-7.55,12.55-5.89,19.69-5.72,5.75.13,11.51,0,17.26,0v.37c5.12,0,10.24.06,15.36,0,5.33-.07,10.66-.25,16-.42,1.73-.06,3.77-.2,3.83-2.42.07-2.88-2.34-2.44-4.2-2.48-1.28,0-2.56,0-3.84.11-17,1-34.08.4-51.11-.33-2.82-.12-5.15.06-5.51-4.2-1-11.77-9-18.76-19.63-18-10.35.73-16.91,8.4-16.93,20.06,0,2,.1,3.58-2.06,4.71C2.6,224.81.62,238.42,0,252.67c-.07,1.74-.13,3.83,2.07,4,2.56.17,2.82-2,2.88-4s.17-4.27.38-6.39C6.23,237.3,8.45,229.05,16.38,223.47Zm21-26.49a14,14,0,0,1,0,28.09,14.5,14.5,0,0,1-14.07-13.79A14.22,14.22,0,0,1,37.38,197Z"/><path class="cls-5" d="M30.11,236.36c-4.5-.92-9.19-2-10.44-7.85-.66-3.1-2.76-2.71-4.5-.4h0c5.89,12.27,17.69,12.59,28.51,12.83,31.58.7,63.17.48,94.75.08,5.81-.08,12.23-.26,15.6-6.71-7.49,3.82-15.56,3.53-23.64,3.5-28.78-.09-57.56,0-86.33-.09A70.87,70.87,0,0,1,30.11,236.36Z"/><path class="cls-5" d="M138.43,241c-31.58.4-63.17.62-94.75-.08-10.82-.24-22.62-.56-28.51-12.83-.14,4.39,1.39,7.82,5.4,10a32.61,32.61,0,0,0,14,3.87c35.1,2,70.24.56,105.36.82a26.72,26.72,0,0,0,12.39-2.61c2.57-1.31,4.32-3,1.69-5.9C150.66,240.76,144.24,240.94,138.43,241Z"/><path class="cls-6" d="M152.05,80.1A20.24,20.24,0,0,0,174.32,80a19.13,19.13,0,0,0,7.93-20.14c-.43-2.07-.52-4.89-3.44-4.33-3.15.6-1.77,3.29-1.33,5.24,1.52,6.71-1.12,11.78-6.5,15.37s-10.92,3.3-16.18-.28c-5.57-3.79-7.61-9.42-5.86-15.67,3-10.88,8.46-20.76,14.2-31.11,1.35,2.42,2.38,4.2,3.34,6s2,2.91,4,1.74c1.78-1,1.07-2.51.35-3.87-1.7-3.19-3.28-6.45-5.14-9.54-1.63-2.68-3.64-2.95-5.26.06-6.26,11.6-12.84,23.09-16.39,35.89A19,19,0,0,0,152.05,80.1Z"/><path class="cls-7" d="M160.85,39.65c-3.39,6.4-6.68,12.83-8.89,19.79-1.58,5,0,9.08,3.43,12.17,3.8,3.45,8.68,3.31,13.23,1.32s6-5.75,6-10.5c-1.18-8.86-5.81-16.36-10-24C162.86,35.14,161.64,38.16,160.85,39.65Z"/><path class="cls-8" d="M209.54,170.15q-7.74,19.71,6.18,35.62c3.53,4,5.82,4,9.41-.05,7.86-8.88,9-19.35,7-30.53-.39-2.21-1.95-4.43,0-6.63-1-1.87-2-3.73-3-5.6-7.07-13.69-7.79-13.75-17-1.44a10.9,10.9,0,0,1-.89.91h0C212.74,165.46,210.5,167.69,209.54,170.15Zm11.23-11.72c11.18,15.68,12.63,30.32,4.39,42.36-4.44,6.48-5.53,6.47-9.94-.08C206.24,187.38,208.05,172.69,220.77,158.43Z"/><path class="cls-8" d="M214,206.75c5.14,6.24,7,6.19,12.29.09,10-11.54,10.18-24.56,5.88-38.28-2,2.2-.41,4.42,0,6.63,2,11.18.83,21.65-7,30.53-3.59,4.05-5.88,4.1-9.41.05q-13.87-15.89-6.18-35.62c1-2.46,3.2-4.69,1.76-7.72C202.62,177.79,202.41,192.64,214,206.75Z"/><path class="cls-9" d="M90.68,169.87a15.91,15.91,0,0,0,15.75-16A16.08,16.08,0,0,0,91,138.22c-8.46-.26-15.89,7-16,15.68A15.8,15.8,0,0,0,90.68,169.87ZM80.45,150.14c2.57-5.9,7.09-8.17,13.41-6.64h0c2.92.81,5.28,2.27,6.23,5.36,3.29,5.53,1.75,10.31-2.85,14-4,3.28-8.76,3.32-13,.14S78.13,155.42,80.45,150.14Z"/><path class="cls-9" d="M56.33,196.79c-.32,9.06,6.82,16.68,15.61,16.65a15.82,15.82,0,1,0-15.61-16.65ZM71.4,186.53a11.33,11.33,0,0,1,11.73,11,11.19,11.19,0,0,1-22.37.42A11.34,11.34,0,0,1,71.4,186.53Z"/><path class="cls-9" d="M46,186.74a15.51,15.51,0,1,0-.63-31c-8.83.08-15.95,7.26-15.68,15.79A15.69,15.69,0,0,0,46,186.74Zm-3.14-26.3a9,9,0,0,1,8.86,1.94h0c2.37.82,3.46,2.71,4.11,5,1.5,8-1.47,13.4-8,14.66a11.06,11.06,0,0,1-4.93-21.56Z"/><path class="cls-8" d="M236.82,230.05c16.45-.28,34.5-16.15,37.33-32.72.41-2.39-.3-3.74-2.64-4.13-17.57-3-37.36,1.64-44.93,22.32C221.76,228.69,222.85,228.67,236.82,230.05Zm-6.52-11.67c5.18-14,15.71-21.3,31.37-21.39,8.09-.05,8.12,0,4.4,7.23-6.56,12.8-15.88,21.31-31.37,21.09C228.82,225.22,228.53,223.15,230.3,218.38Z"/><path class="cls-10" d="M210.75,229.39c5.91-.84,6.92-3.44,5.58-8.62-4.73-18.17-18.12-28.39-37.44-28.32-13.75,0-14.4,1.06-8.45,13.27.37.76.8,1.5,1.21,2.24C180.83,224.56,194.32,231.71,210.75,229.39Zm.13-10.69c1.57,4.51,1.17,6.47-4.31,6.6-16,.36-30.58-11.43-33.81-27.91C192.39,195.43,205.31,202.76,210.88,218.7Z"/><polygon class="cls-11" points="93.87 143.5 93.87 143.5 93.87 143.5 93.87 143.5"/><polygon class="cls-12" points="93.86 143.5 93.86 143.5 93.87 143.5 93.86 143.5"/><path class="cls-12" d="M89.66,147.92a5.45,5.45,0,0,0-1.49,6.34c.73,1.87,2,3.28,4.19,3.37,2.65.1,4.25-1.48,5.35-3.72.82-1.67.68-3.8,2.39-5-.95-3.09-3.31-4.55-6.23-5.36C93.53,146,91.12,146.51,89.66,147.92Z"/><path class="cls-12" d="M86.07,154.59a6.5,6.5,0,0,0,6.65,5,7.16,7.16,0,0,0,6.9-5.68,29,29,0,0,0,.48-5.06c-1.71,1.25-1.57,3.38-2.39,5-1.1,2.24-2.7,3.82-5.35,3.72-2.15-.09-3.46-1.5-4.19-3.37a5.45,5.45,0,0,1,1.49-6.34c1.46-1.41,3.87-1.94,4.21-4.42h0q-2.27,1.16-4.51,2.33C85.62,147.76,85.05,151.12,86.07,154.59Z"/><path class="cls-13" d="M42.15,169.77a4.82,4.82,0,0,0,3.16,4.41,5.29,5.29,0,0,0,6.35-1.49c1.56-1.66,1.62-4.5,4.2-5.35-.65-2.25-1.74-4.14-4.11-5-1.56,1.85-4,1.25-5.89,2C43.46,165.38,42.05,167.12,42.15,169.77Z"/><path class="cls-13" d="M47.28,162.3c-4.56-.1-6.69,2.86-7.13,6.68a6.53,6.53,0,0,0,5.06,7.23c3.86,1,7.22,0,8.93-4.1.65-1.56,1.15-3.18,1.72-4.77-2.58.85-2.64,3.69-4.2,5.35a5.29,5.29,0,0,1-6.35,1.49,4.82,4.82,0,0,1-3.16-4.41c-.1-2.65,1.31-4.39,3.71-5.36,1.93-.78,4.33-.18,5.89-2h0C50.25,162.36,48.77,162.34,47.28,162.3Z"/><path class="cls-7" d="M40.07,216.4c5.57.14,8.71-2.49,8.71-7.67s-2.88-7.64-6.46-8c-6.45-.17-10.24,3.11-9.91,8.06C32.7,213.22,35,216.27,40.07,216.4Z"/><path class="cls-14" d="M74,203.48c3.48-.7,6.73-2.67,6.62-7.26-.12-4.41-2.82-7-7.43-7-4.43,0-6.57,2.24-6.71,6.7C66.35,200.71,68.77,202.93,74,203.48Z"/></g></g></g></svg>