<svg xmlns="http://www.w3.org/2000/svg" viewBox="0 0 287.97 342.21"><defs><style>.cls-1{fill:#21a5bf;}.cls-2{fill:#1d7c89;}</style></defs><title>sbotics</title><g id="Camada_2" data-name="Camada 2"><g id="Camada_17" data-name="Camada 17"><g id="sbotics"><path class="cls-1" d="M264.64,140.16c-1.7-3.31-4.3-6.31-4-10.4l.21-55.43C266.37,70,272.43,66.42,277.05,61c16.06-18.9,14.28-40.91-4.49-53.94-16.06-11.15-37.21-8.83-48.1,5.29-12.23,15.85-11.71,43.31,4.3,52.47,14,8,14,18.16,13.61,30.48-.13,4.13,0,8.27,0,13.57C215.22,82.11,183.07,67.22,145,66.94c-37.46-.28-70.26,12.54-99,39.28,0-11.32.12-19.91-.06-28.51-.07-3.32,1.07-5.2,4.16-6.55,17.54-7.67,22.83-22,21.08-39.87-1.87-19.14-17.93-33-35.71-31C11.13,2.93-2.47,17.19.37,37.83c2.31,16.82,13.11,27.83,26.82,36.5l-.36,57.43C13.1,150.87,6.11,177.44,6.11,204.36c0,26,6.52,52.29,19.77,72.5,31.93,48.7,77.27,70.8,135.51,64.22,63-7.12,114.91-62.26,118.48-125V193.26a121,121,0,0,0-4.8-27.35A146.85,146.85,0,0,0,264.64,140.16ZM46,207.86c-9.25-4.81-17.81-10.44-22.95-19.13-4.5-7.61-7.63-15.63-6.66-24.32,2.31-20.63,28.5-31.35,49.06-20.12,3.1,1.69,5.86,3.86,9.09,6,2.83-6.46,6.82-11.89,13-15.89,18.71-12,44.65-3.32,50,16.68,3.69,13.72,1.66,26.44-7.47,37.92-8.9,11.18-18.18,22.13-27.28,33.19-2.76,3.36-5.45,6.76-8.18,10.16a4,4,0,0,1-1-.16C77.79,224.1,61.83,216.09,46,207.86Zm146.07,72.32a358.48,358.48,0,0,1-43.2,12.35,60.8,60.8,0,0,1-13,1.34c-21.06,0-39.31-9.73-40.22-10.22a9,9,0,0,1,8.55-15.84c.21.12,21.47,11.34,40.82,7.13a346.8,346.8,0,0,0,40.8-11.65,9,9,0,1,1,6.22,16.89Zm69.06-91.42c-5.14,8.69-13.7,14.33-22.95,19.14-15.82,8.23-31.78,16.24-47.69,24.33a3.5,3.5,0,0,1-1,.16c-2.73-3.39-5.42-6.79-8.19-10.15-9.09-11.06-18.37-22-27.27-33.2-9.13-11.47-11.17-24.2-7.48-37.91,5.39-20,31.33-28.72,50-16.68a33.49,33.49,0,0,1,12,13.64,12.91,12.91,0,0,1,2,1.64c2.85-1.95,5.4-3.87,8.2-5.4,20.56-11.23,46.75-.51,49.05,20.12C268.77,173.14,265.64,181.15,261.14,188.76Z"/><path class="cls-2" d="M132.47,341.93S213,322.74,243,284.74c28.06-35.54,34-89,30-112s-10.65-36.68-10.65-36.68,19.45,28.44,17.55,74.06S258.94,288.86,236,306.3,187,344.13,132.47,341.93Z"/></g></g></g></svg>