<svg xmlns="http://www.w3.org/2000/svg" viewBox="0 0 180 180"><defs><style>.cls-1{fill:#ff910d;}</style></defs><title>seta</title><g id="Camada_2" data-name="Camada 2"><g id="Camada_20" data-name="Camada 20"><g id="Camada_19" data-name="Camada 19"><path class="cls-1" d="M90.1,0C139.38,0,180,40.56,180,89.78A90.27,90.27,0,0,1,89.69,180C40.31,180-.06,139.28,0,89.58.05,40.42,40.71,0,90.1,0Zm0,12A78,78,0,1,0,90.34,168C133,168,168,132.93,168,90.08A78.14,78.14,0,0,0,90.08,12Z"/><path class="cls-1" d="M89.66,79.48C79.33,90,69.19,100.28,59,110.58c-4.79,4.84-7.8,5.54-10.83,2.64s-2.42-6.11,2.6-11.12Q67.66,85.21,84.54,68.34c4.41-4.4,6.53-4.39,11,0q17.79,17.76,35.58,35.55c2.67,2.65,3.55,5.49,1.21,8.68s-6.2,3-9.55-.29q-14.82-14.72-29.57-29.5C92.2,81.84,91.16,80.9,89.66,79.48Z"/></g></g></g></svg>