<svg xmlns="http://www.w3.org/2000/svg" viewBox="0 0 1276.05 1195.04"><defs><style>.cls-1{fill:#ff910d;}.cls-2{opacity:0.02;}.cls-3{fill:#6073ff;}.cls-4{fill:#222e5b;}.cls-5{fill:#e27a0a;}</style></defs><title>tudo_junto</title><g id="Camada_2" data-name="Camada 2"><g id="Camada_14" data-name="Camada 14"><path class="cls-1" d="M607.89,49.4a56.75,56.75,0,0,1,5.29,3.06A56.75,56.75,0,0,0,607.89,49.4Z"/><path class="cls-1" d="M614.92,53.63c.57.41,1.14.82,1.69,1.24C616.06,54.45,615.49,54,614.92,53.63Z"/><path class="cls-1" d="M613.18,52.46c.59.38,1.16.77,1.74,1.17C614.34,53.23,613.77,52.84,613.18,52.46Z"/><path class="cls-1" d="M603.52,47.41q2.22.9,4.37,2Q605.75,48.31,603.52,47.41Z"/><path class="cls-1" d="M616.61,54.87c14.5,11,23.85,29.07,21.79,50.57,1.62,19.45-5.61,34.62-20,46.63,14.42-12,21.65-27.18,20-46.63C640.46,83.94,631.11,65.89,616.61,54.87Z"/><g id="linkedn"><g class="cls-2"><path d="M889.33,229.19c-13,0-25.83-5.67-36.16-16C851,211,849,210,846.93,210a11.43,11.43,0,0,0-5,1.43,66.34,66.34,0,0,1-29.61,7.12c-32.56,0-58.29-24.17-61.2-57.47-.5-5.83-3.39-7.44-8.55-8.38-18.09-3.29-33.21-13.89-41.5-29.08-8.38-15.37-9.08-34.11-1.92-51.41,9.7-23.45,29.23-36.9,53.57-36.9a69.84,69.84,0,0,1,9,.61,23.05,23.05,0,0,0,3.11.24c3.83,0,6.61-1.37,9.29-4.58A64.2,64.2,0,0,1,824.28,8.42a66.91,66.91,0,0,1,61.89,40.39c2.52,5.91,5,8.1,9.32,8.1a22.39,22.39,0,0,0,5.33-.79,41.08,41.08,0,0,1,9.77-1.2c20.59,0,38,15.88,40.5,36.92.74,6.3,3.27,10.24,8.71,13.62,17.21,10.73,26.63,30.62,22.89,48.39-4.34,20.59-17.79,33.18-40,37.41-3.52.67-7.67,3.86-9.07,7C924.92,217.62,908.36,229.19,889.33,229.19Z"/><path d="M824.28,8.92A66.41,66.41,0,0,1,885.71,49c2.21,5.19,4.62,8.4,9.78,8.4a22.82,22.82,0,0,0,5.45-.8,40.09,40.09,0,0,1,9.65-1.19c20.33,0,37.53,15.69,40,36.48.77,6.46,3.36,10.52,8.94,14a50.72,50.72,0,0,1,19.22,21.44,41.63,41.63,0,0,1,3.45,26.42c-4.29,20.39-17.61,32.84-39.58,37-3.66.7-8,4-9.44,7.26-8.63,19.2-25,30.66-43.85,30.66-12.86,0-25.57-5.62-35.8-15.83-2.31-2.31-4.35-3.34-6.6-3.34a11.81,11.81,0,0,0-5.19,1.48,65.8,65.8,0,0,1-29.39,7.07,60.38,60.38,0,0,1-40.74-15.65c-11.45-10.41-18.54-25.1-20-41.36-.53-6.15-3.56-7.85-9-8.83-17.94-3.26-32.94-13.77-41.15-28.83-8.31-15.24-9-33.82-1.9-51,4.71-11.38,12-20.72,21.2-27a56,56,0,0,1,31.91-9.58,67,67,0,0,1,9,.61,24.15,24.15,0,0,0,3.18.24c4,0,6.88-1.42,9.68-4.76a63.69,63.69,0,0,1,49.69-23m0-1a65.15,65.15,0,0,0-50.46,23.36c-2.76,3.29-5.46,4.4-8.91,4.4a24.15,24.15,0,0,1-3-.23,67.6,67.6,0,0,0-9.11-.62c-24.32,0-44.27,13.61-54,37.21-15.05,36.36,5.28,74.17,43.8,81.17,4.81.88,7.64,2.2,8.14,7.94,3,34.81,30.48,57.92,61.69,57.92a67.17,67.17,0,0,0,29.83-7.17,10.84,10.84,0,0,1,4.75-1.38c2,0,3.8,1,5.89,3,10.94,10.92,23.92,16.12,36.51,16.12,18.23,0,35.63-10.92,44.76-31.25,1.35-3,5.44-6.07,8.71-6.69,22.09-4.21,36-16.86,40.38-37.8C987,136,977.71,116,960.06,105c-5.19-3.23-7.72-6.91-8.47-13.26-2.6-21.79-20.52-37.36-41-37.36a41.31,41.31,0,0,0-9.89,1.22,22.3,22.3,0,0,1-5.21.77c-4.22,0-6.5-2.25-8.86-7.8C875.37,22.19,849.88,7.92,824.28,7.92Z"/></g><path class="cls-1" d="M986.86,170.78c9.77-19.26,7.66-39.48-1.8-55-.36-.6-.74-1.19-1.13-1.78s-.78-1.15-1.18-1.72a60.49,60.49,0,0,0-3.8-4.79c-1.07-1.19-2.18-2.34-3.35-3.45a55.81,55.81,0,0,0-5.54-4.62,26.72,26.72,0,0,1-11-16.35c-6.43-25.67-29.95-41.48-54.86-36.9-6.8,1.25-9.11-.82-12-6.34C867.91-6.27,805.61-13.74,770,24.71c-2,2.11-6.17,3-9.31,3-28.32-.53-50.51,10.34-63.93,35.65-4.67,8.82-6.73,19.14-9.27,29-9.2,35.66,11.77,71.18,47.32,80.08,5.15,1.29,7.59,3.16,8.68,8.71,8.77,44.74,53.7,68.69,95.84,51.19,4.93-2,8.2-1.56,12.42,1.78,30.26,24,69,15,86.57-19.34,1.56-3.07,5.71-5.79,9.2-6.76q1.85-.51,3.63-1.11C969,201,981.25,189.47,986.86,170.78Zm-41.12,18.49c-3.27.66-7.32,3.79-8.63,6.8-15,34.56-53.92,42.58-81.06,16.2-3.63-3.53-6.35-3.73-10.67-1.52-41.14,21.06-87.59-3.86-92.18-49.54-.58-5.73-3.42-7-8.25-7.82-38.6-6.5-59.43-44-44.87-80.59,10.61-26.63,34.2-40.85,62.66-37.42,5,.61,8.43-.08,11.9-4.33,31-38.09,93-29.5,113,15.84,3.28,7.43,6.33,8.88,14.16,6.84,24.21-6.32,48,10.25,51.36,35.46.84,6.34,3.42,10,8.65,13.14,17.8,10.76,27.31,30.62,23.77,48.6C981.47,171.93,967.76,184.77,945.74,189.27Z"/><path class="cls-1" d="M861,257.05c-14.28-14.72-38.23-10.93-45.09,7.14-3.53,9.3.39,28.93,7.23,36.23,11.57,12.35,32.09,11.21,41.51-2.31C871,289,868.91,265.15,861,257.05Zm-26.45,34.1c-10.66-4.31-15.8-15.06-11.86-24.84s15.19-14,25.69-9.74c9.92,4,15.47,15.27,12,24.3C856.72,290.27,844.49,295.15,834.59,291.15Z"/><path class="cls-1" d="M811.65,319.93c-10.78-4.35-22.79.34-26.94,10.51s3.28,29.87,12.38,33.33c10.22,3.88,22.92-1,26.67-10.24C828.65,341.48,822.45,324.29,811.65,319.93Zm-12.4,29.87c-7.06-2.88-10.56-10.22-8-16.73s10.58-9.55,17.29-6.8c7.22,3,10.43,10,7.68,16.73C813.37,350.06,806.57,352.78,799.25,349.8Z"/><g id="linkedinlogo"><path class="cls-3" d="M891.75,92.63c-14.29-4.44-28.16-4.16-40.65,7.78a19.81,19.81,0,0,1-.28-3.75c.87-5.51-1.72-7-6.83-6.6a119.5,119.5,0,0,1-13.25.06c-3.06-.08-4.31,1.13-4.31,4.24.06,26.11,0,52.22.22,78.32,0,1.43,2.55,3.89,4.1,4,5.17.51,10.43,0,15.64.27,4.13.2,5.68-1.22,5.61-5.49q-.33-18.37,0-36.75a52.07,52.07,0,0,1,1.63-13.07c1.92-6.92,7.1-10,14.71-9.85,6.77.18,11.25,3.47,12.88,10.44A66.49,66.49,0,0,1,882.69,136c.2,11.84.16,23.69,0,35.54-.05,3.69.91,5.62,5,5.44,5.61-.24,11.26.18,16.85-.25,1.44-.12,3.89-2.38,3.89-3.66.11-18.88.4-37.77-.46-56.61C907.54,105.77,903,96.14,891.75,92.63Z"/><path class="cls-3" d="M804.56,90.1c-6.61.15-13.23.21-19.84,0-4.18-.15-5.63,1.47-5.57,5.6.17,12.62.06,25.25.06,37.87h-.06c0,12.63.12,25.25-.07,37.88-.07,4.15,1.31,5.72,5.52,5.57,6.8-.25,13.62-.18,20.43,0,3.36.07,4.6-1.26,4.59-4.6q-.12-38.77,0-77.55C809.65,91,808,90,804.56,90.1Z"/><path class="cls-3" d="M794.45,77.5a15.49,15.49,0,0,0,15-15A15.32,15.32,0,0,0,793.73,47a14.89,14.89,0,0,0-14.46,15.27C779.33,71,786,77.67,794.45,77.5Z"/></g></g><g id="instagram"><g class="cls-2"><path d="M472.88,216.73c-23.48,0-44.13-13-55.24-34.89-1.8-3.55-3.95-5.06-7.19-5.06a19.56,19.56,0,0,0-3.87.48,64.42,64.42,0,0,1-13,1.36A56.57,56.57,0,0,1,353,162c-11-11.1-17-26.43-16.83-43.15.26-28.67,16.9-50,44.5-57.07,4.76-1.22,8.07-3.09,9.88-8.67,8.77-27.06,34.3-45.23,63.51-45.23a65.7,65.7,0,0,1,46.76,19.3c3.36,3.35,5.8,4.72,8.41,4.72,2.23,0,4.6-1,7.92-3.42a39.9,39.9,0,0,1,23.5-7.65,41.81,41.81,0,0,1,36.48,22c3,5.56,6.86,8.27,13.17,9.37,20,3.51,36.15,18.44,39.33,36.31,3.68,20.73-4.08,37.43-23.08,49.66-3,1.93-5.67,6.45-5.81,9.86-1.09,28.18-20.91,48.64-47.11,48.64a55.89,55.89,0,0,1-21.9-4.65,11.59,11.59,0,0,0-4.51-1.1c-2.31,0-4.27,1.1-6.55,3.66C508,208.85,491,216.73,472.88,216.73Z"/><path d="M454.08,8.39a65.2,65.2,0,0,1,46.41,19.16c3.46,3.45,6,4.86,8.76,4.86,2.35,0,4.8-1,8.21-3.51a39.4,39.4,0,0,1,23.21-7.56,41.3,41.3,0,0,1,36,21.71c3.13,5.71,7,8.5,13.52,9.62a50.79,50.79,0,0,1,25.84,12.69,41.67,41.67,0,0,1,13.09,23.22c3.64,20.51-4,37-22.86,49.14-3.13,2-5.89,6.72-6,10.27-.53,13.8-5.61,26.22-14.31,34.95a45.13,45.13,0,0,1-32.3,13.21,55.5,55.5,0,0,1-21.71-4.61,12.11,12.11,0,0,0-4.7-1.14c-2.47,0-4.54,1.15-6.93,3.83-12.63,14.18-29.47,22-47.43,22a60,60,0,0,1-31.26-8.79,64.06,64.06,0,0,1-23.53-25.83c-1.87-3.69-4.23-5.33-7.64-5.33a19.81,19.81,0,0,0-4,.49,64.16,64.16,0,0,1-12.92,1.35,56.06,56.06,0,0,1-40.18-16.46c-10.91-11-16.84-26.21-16.69-42.79.13-13.87,4.25-26.4,11.91-36.26s18.83-16.91,32.21-20.34c4.93-1.26,8.35-3.2,10.24-9,8.7-26.84,34-44.88,63-44.88m0-1c-27.54,0-54.57,16.55-64,45.57-1.69,5.22-4.62,7.09-9.53,8.34C352.8,68.41,336,90.2,335.69,118.86c-.31,34.77,25.42,60.26,57.87,60.26a64.94,64.94,0,0,0,13.12-1.37,19.56,19.56,0,0,1,3.77-.47c2.79,0,4.9,1.14,6.75,4.78,11.72,23.06,33.45,35.17,55.68,35.17,17.23,0,34.76-7.27,48.18-22.34,2.08-2.33,3.9-3.49,6.18-3.49a11.29,11.29,0,0,1,4.31,1.06,56.48,56.48,0,0,0,22.1,4.69c25.7,0,46.47-19.63,47.61-49.12.13-3.29,2.78-7.66,5.58-9.46,18.91-12.17,27-29.1,23.3-50.17-3.21-18-19.25-33.11-39.73-36.71-6-1-9.75-3.51-12.82-9.12a42.2,42.2,0,0,0-36.92-22.23,40.53,40.53,0,0,0-23.8,7.74c-3,2.21-5.4,3.33-7.62,3.33-2.58,0-5-1.5-8.06-4.57A66.08,66.08,0,0,0,454.08,7.39Z"/></g><path class="cls-1" d="M638.4,105.44c2.06-21.5-7.29-39.55-21.79-50.57-.55-.42-1.12-.83-1.69-1.24s-1.15-.79-1.74-1.17a56.75,56.75,0,0,0-5.29-3.06q-2.14-1.09-4.37-2a55,55,0,0,0-6.85-2.28,26.74,26.74,0,0,1-16.23-11.19c-15.37-21.54-43-27.66-64.54-14.29-5.88,3.65-8.78,2.57-13.51-1.51C463-15.87,402.24,0,383.17,48.76c-1.05,2.67-4.64,5.08-7.58,6.17C349,64.8,332.36,83,329.12,111.49c-1.12,9.92.73,20.28,2,30.35,4.48,36.56,37,61.95,73.33,57.24,5.26-.68,8.22.17,11.26,4.93,24.52,38.44,75.09,44.3,107.92,12.61,3.84-3.7,7.06-4.45,12.21-2.88,36.93,11.26,69.77-11.25,73.5-49.65.33-3.43,3.21-7.48,6.09-9.66,1-.77,2-1.56,3-2.36C632.79,140.06,640,124.89,638.4,105.44Zm-31.51,32.24c-2.8,1.81-5.42,6.2-5.54,9.49-1.31,37.63-34.62,59.34-69.53,44.71-4.67-2-7.27-1.15-10.48,2.48C490.74,229,438.4,222.79,417.42,182c-2.63-5.12-5.74-5.28-10.53-4.27-38.31,8.06-71.42-19.26-71.23-58.61.14-28.66,16.9-50.52,44.64-57.73,4.89-1.27,7.82-3.16,9.49-8.38,15-46.8,75.79-61.46,111-26.58,5.77,5.71,9.14,6,15.69,1.18,20.22-14.73,48.45-8,60.77,14.24,3.1,5.59,6.83,8,12.86,9.06,20.49,3.51,36.6,18.51,39.88,36.55C633.81,108.48,625.74,125.44,606.89,137.68Z"/><path class="cls-1" d="M514.67,246.09c-18.68-8.48-39.58,3.81-39.36,23.13.11,9.95,10.94,26.78,20,31.08,15.29,7.27,34-1.3,37.8-17.32C535.65,272.2,525,250.76,514.67,246.09ZM502.52,287.5c-11.51-.11-20.22-8.24-20.13-18.78s9-18.55,20.36-18.46c10.69.09,20,8.56,20,18.24C522.79,278.59,513.19,287.6,502.52,287.5Z"/><path class="cls-1" d="M528.45,311.62c-11.62-.11-21.09,8.64-21.22,19.63-.14,10.84,14,26.6,23.7,26.49,10.93-.12,21-9.3,21.08-19.28C552.15,325.46,540.11,311.73,528.45,311.62ZM527.84,344c-7.63-.1-13.57-5.65-13.55-12.65s6.35-12.76,13.61-12.66c7.79.11,13.34,5.46,13.26,12.77C541.07,339,535.74,344.05,527.84,344Z"/><g id="instagramlogo"><path class="cls-3" d="M423,151.66c.24,13.69,11.78,25.54,25.2,25.66q38.43.35,76.85.09c16.19-.13,27.36-11.88,27.41-28.16,0-12.25,0-24.5,0-36.75h-.06q0-8.91,0-17.82c0-6.13-.05-12.26,0-18.38.06-17.7-11.38-29.56-29-29.67q-35.91-.23-71.83-.09c-17.77.06-29.33,11.69-29.26,29.41.05,12.43.5,24.86.62,37.29C423,126.05,422.73,138.86,423,151.66Zm10.21-39.83h.69c0-12.62-.25-25.24.08-37.84.25-9.33,6.69-15.59,16.09-15.68q37.29-.33,74.59-.08c9.2.06,16.08,6.62,16.18,15.78q.38,38.11-.09,76.26c-.12,9.58-6.93,15.78-16.57,15.92q-36.15.54-72.3.75c-11.22.07-18.52-7.18-18.64-18.37C433.06,136.32,433.17,124.07,433.17,111.83Z"/><path class="cls-3" d="M487.27,146.05c19,0,33.91-14.59,34-33.19.13-19.29-14.75-34.68-33.72-34.89a34.07,34.07,0,0,0-34.25,33.82C453.06,130.15,468.84,146.08,487.27,146.05Zm.44-56.16a22.26,22.26,0,0,1,22.07,22.46,22.65,22.65,0,1,1-22.07-22.46Z"/><path class="cls-3" d="M523.63,84.51a8.21,8.21,0,0,0,8.12-8.07,8.07,8.07,0,0,0-16.13.48A8.12,8.12,0,0,0,523.63,84.51Z"/></g></g><g id="wpp"><g class="cls-2"><path d="M1175,461.64c-13.27,0-26.45-5.73-37.11-16.13-2.28-2.23-4.26-3.22-6.41-3.22a11.54,11.54,0,0,0-5.2,1.53,68.53,68.53,0,0,1-31.33,7.73c-33.33,0-60-24.73-63.33-58.81-.59-6-3.6-7.65-8.94-8.56-18.78-3.2-34.58-14-43.34-29.64-8.86-15.82-9.81-35.22-2.6-53.23,9.89-24.7,30.24-38.86,55.83-38.86a72.08,72.08,0,0,1,8.61.53,24.63,24.63,0,0,0,3,.21c4.06,0,7-1.45,9.76-4.85a67.34,67.34,0,0,1,52.41-24.61c27.76,0,52.8,16.14,63.77,41.11,2.65,6,5.26,8.27,9.6,8.27a22.71,22.71,0,0,0,5.64-.88,42.42,42.42,0,0,1,10.58-1.36c21.09,0,39.12,16.24,41.93,37.78.84,6.5,3.5,10.55,9.17,14,18,10.91,28,31.41,24.29,49.86-4.25,21.39-18,34.59-41,39.23-3.63.74-7.89,4.09-9.3,7.32C1212.3,449.15,1194.65,461.64,1175,461.64Z"/><path d="M1106.36,234.23a70.32,70.32,0,0,1,37,10.45,67.32,67.32,0,0,1,26.33,30.37c2.33,5.29,4.83,8.56,10.06,8.56a23.28,23.28,0,0,0,5.77-.89,41,41,0,0,1,37.79,9.12,43.35,43.35,0,0,1,14.09,26.87c.87,6.67,3.59,10.83,9.41,14.35A52.51,52.51,0,0,1,1267,355a43.21,43.21,0,0,1,3.89,27.35c-4.21,21.17-17.86,34.24-40.59,38.84-3.77.76-8.19,4.25-9.66,7.61a56,56,0,0,1-19.25,24,46.41,46.41,0,0,1-26.36,8.26c-13.13,0-26.19-5.68-36.76-16-2.38-2.33-4.47-3.37-6.76-3.37a12,12,0,0,0-5.43,1.59,68,68,0,0,1-31.11,7.67,62.57,62.57,0,0,1-41.92-16c-11.83-10.63-19.26-25.69-20.9-42.39-.63-6.34-3.77-8.05-9.36-9-18.63-3.17-34.29-13.88-43-29.39-8.79-15.69-9.73-34.94-2.58-52.81,4.8-12,12.38-21.8,21.94-28.43A58.15,58.15,0,0,1,1032.56,263a70.8,70.8,0,0,1,8.54.53,25.84,25.84,0,0,0,3.09.21c4.23,0,7.26-1.51,10.14-5a66.87,66.87,0,0,1,52-24.43m0-1a67.51,67.51,0,0,0-52.8,24.8c-2.87,3.5-5.7,4.66-9.37,4.66a24.22,24.22,0,0,1-3-.21,73.59,73.59,0,0,0-8.67-.53c-25.54,0-46.36,14.37-56.3,39.17-15.14,37.84,6.35,76.75,46.33,83.55,5,.85,7.94,2.19,8.52,8.12,3.53,35.74,31.81,59.26,63.82,59.26a69.4,69.4,0,0,0,31.56-7.78,11.21,11.21,0,0,1,5-1.48c2,0,3.9,1,6.06,3.08,11.3,11,24.6,16.27,37.46,16.27,19.08,0,37.22-11.54,46.53-32.9,1.36-3.12,5.56-6.34,8.94-7,22.83-4.62,37-17.89,41.37-39.63,3.69-18.62-6.11-39.2-24.52-50.38-5.41-3.27-8.08-7.05-8.94-13.62-2.92-22.37-21.4-38.21-42.42-38.21a42.76,42.76,0,0,0-10.7,1.38,22.54,22.54,0,0,1-5.52.86c-4.29,0-6.65-2.32-9.14-8-11.84-26.95-38-41.41-64.23-41.41Z"/></g><path class="cls-1" d="M1270.4,396.61c9.2-19.53,6.51-39.68-3.4-54.95-.38-.59-.77-1.17-1.18-1.74s-.81-1.14-1.23-1.7a58.25,58.25,0,0,0-3.94-4.67q-1.65-1.74-3.44-3.35a55.73,55.73,0,0,0-5.68-4.46,26.74,26.74,0,0,1-11.48-16c-7.18-25.47-31.14-40.59-55.91-35.29-6.76,1.45-9.13-.55-12.2-6-25.6-45.34-88.08-51-122.55-11.52-1.89,2.16-6.08,3.21-9.21,3.24-28.33.3-50.19,11.81-62.87,37.5-4.42,9-6.18,19.33-8.42,29.23-8.16,35.91,13.83,70.8,49.63,78.67,5.18,1.14,7.68,2.94,8.92,8.45,10.08,44.46,55.68,67.09,97.3,48.38,4.86-2.19,8.15-1.8,12.46,1.42,30.94,23.09,69.46,13,86-21.85,1.47-3.12,5.54-5.95,9-7,1.22-.38,2.42-.78,3.6-1.21C1253.4,427.29,1265.34,415.46,1270.4,396.61Zm-40.56,19.68c-3.25.76-7.21,4-8.43,7-14,35-52.66,44.13-80.55,18.56-3.74-3.43-6.46-3.55-10.71-1.22-40.52,22.25-87.67-1.31-93.59-46.83-.74-5.71-3.62-6.91-8.47-7.58C989.32,380.9,967.41,344,980.9,307c9.82-26.92,33-41.83,61.54-39.23,5,.46,8.42-.32,11.76-4.67,29.92-39,92.12-32.19,113.44,12.54,3.5,7.33,6.59,8.7,14.36,6.42,24-7,48.3,8.86,52.37,34,1,6.31,3.71,9.87,9,12.88,18.11,10.24,28.19,29.81,25.17,47.88C1265.05,397.92,1251.72,411.15,1229.84,416.29Z"/><path class="cls-1" d="M980.52,419.09c20.9,14,26.76,42.65,11.05,53.9-8.08,5.79-29.78,4.75-40.05-1.91C934.16,459.8,927,435.65,937,422.23,943.71,413.2,969,411.38,980.52,419.09Zm-24.15,37c8.76,11.67,21.86,15.73,30.27,9.38s8.11-20.25-.49-31.73c-8.13-10.86-21.94-15.31-29.75-9.59C948.26,430.11,948.24,445.26,956.37,456.09Z"/><path class="cls-1" d="M936.24,488c8.84,11.8,8.93,26.66.2,33.33s-31.93,1.55-39.18-8.45c-8.13-11.23-8.31-26.93-.37-33C907.24,472.09,927.37,476.22,936.24,488Zm-25.55,19.84c5.83,7.73,14.77,10.49,20.38,6.31s5.48-14.06-.07-21.4c-6-7.89-14.44-10.38-20.26-6C904.68,491.46,904.66,499.88,910.69,507.88Z"/><g id="wpplogo"><path class="cls-3" d="M1183.25,388.22a62.48,62.48,0,0,0-4-85.67,63.5,63.5,0,0,0-74.68-10.13c-25,13.91-37.2,41-30.77,69a12.18,12.18,0,0,1-1.82,10.32c-5.1,7.81-9.88,15.83-15.58,25,11.22-.9,20.76-1.5,30.27-2.49a14.51,14.51,0,0,1,11.1,3.21C1124,417.28,1161.91,413,1183.25,388.22Zm-83-1.52c-2.27-1.8-5.79-2.66-8.79-2.81-4.67-.22-9.38.55-15.34,1,2.91-4.79,5-8.66,7.5-12.17,2.38-3.29,2.54-6.3,1.39-10.22-10.27-35,15-68.45,51.54-67.45,21.3.59,37.28,11.2,46.34,30.54,8.69,18.55,6.87,36.88-5.64,53.18-12.85,16.75-30.26,23.39-51.26,20C1116.31,397.14,1108,392.81,1100.27,386.7Z"/><path class="cls-3" d="M1158.44,377.35c5.17-3.49,5.32-8.64.65-12.53-1.55-1.3-3.25-2.45-4.69-3.85-3.15-3.08-6.21-3.61-9.43-.15-3.38,3.62-7,3.3-9.83-.32-4.33-5.61-8.25-11.55-12.07-17.53-.68-1.06-.56-4,.1-4.35,6.57-3.48,5.9-8.93,4.65-14.78-.75-3.53-.33-7.47-5-8.86s-7.94,1-10.61,4.13c-1.86,2.17-2.93,5-4.18,7.23,0,2.75-.46,5,0,7.13,4.33,20.91,15.28,36.88,35.18,45.76C1148.41,381.56,1153.76,380.52,1158.44,377.35Z"/></g></g><g id="github"><g class="cls-2"><path d="M154.91,370c-24.75,0-47.6-14.92-59.65-38.95-2-3.93-4.29-5.6-7.78-5.6a19.78,19.78,0,0,0-3.91.47,65.3,65.3,0,0,1-12.77,1.28h0a60.23,60.23,0,0,1-43.92-18.81C15.13,296.14,8.61,279.33,8.51,261.09c-.17-31.29,17-54.33,46-61.61,5-1.25,8.45-3.25,10.27-9.29A67.58,67.58,0,0,1,130,141.8a70,70,0,0,1,50.58,21.8c3.62,3.74,6.23,5.26,9,5.26,2.33,0,4.78-1.08,8.19-3.61a40.08,40.08,0,0,1,24-8c16.11,0,31.2,9.41,39.38,24.57,3.28,6.09,7.33,9.1,14,10.39,21.11,4.14,38.39,20.7,42,40.27,4.2,22.69-3.73,40.81-23.55,53.86a15,15,0,0,0-6,10.64c-.36,15.27-5.35,28.43-14.44,38.05a45.86,45.86,0,0,1-33.7,14.33A57.87,57.87,0,0,1,215.61,344a12,12,0,0,0-4.87-1.27c-2.38,0-4.39,1.17-6.73,3.89C191.06,361.7,173.62,370,154.91,370Z"/><path d="M130,142.3a69.48,69.48,0,0,1,50.22,21.64c3.72,3.85,6.44,5.42,9.36,5.42,2.45,0,5-1.11,8.48-3.71a39.66,39.66,0,0,1,23.75-7.89c15.93,0,30.85,9.31,38.94,24.3,3.36,6.24,7.51,9.33,14.32,10.65A54.72,54.72,0,0,1,302.47,207a47.76,47.76,0,0,1,14.18,25.61c4.16,22.47-3.69,40.42-23.34,53.35A15.55,15.55,0,0,0,287.13,297c-.35,15.15-5.3,28.19-14.31,37.72a45.37,45.37,0,0,1-33.33,14.17,57.57,57.57,0,0,1-23.68-5.37,12.26,12.26,0,0,0-5.07-1.32c-2.54,0-4.67,1.22-7.11,4.07-12.86,15-30.16,23.28-48.72,23.28a62.91,62.91,0,0,1-33.59-9.83,72.08,72.08,0,0,1-25.61-28.84c-2.07-4.12-4.53-5.88-8.23-5.88a20.53,20.53,0,0,0-4,.48,65.23,65.23,0,0,1-12.68,1.27,59.75,59.75,0,0,1-43.57-18.65c-11.65-12.2-18.12-28.89-18.22-47-.08-15.14,4.07-28.78,12-39.43S40.58,203.49,54.62,200c5.16-1.29,8.74-3.35,10.62-9.63a66.54,66.54,0,0,1,25.23-35.52A68.63,68.63,0,0,1,130,142.3m0-1c-28.64,0-56.31,17.6-65.66,48.74-1.71,5.67-4.77,7.66-9.91,9C25.25,206.32,7.84,229.83,8,261.09c.21,38.28,28.19,66.64,62.79,66.64a65.78,65.78,0,0,0,12.87-1.29,19.78,19.78,0,0,1,3.81-.46c3,0,5.29,1.25,7.33,5.32,12.87,25.67,36.37,39.23,60.1,39.23,17.84,0,35.81-7.67,49.48-23.63,2.12-2.48,4-3.72,6.35-3.72a11.43,11.43,0,0,1,4.66,1.23,58.6,58.6,0,0,0,24.09,5.46c26.71,0,47.89-21,48.64-52.87a14.59,14.59,0,0,1,5.73-10.23c19.73-13,28-31.33,23.77-54.37C314,212.66,296.84,196,275.22,191.73c-6.36-1.23-10.32-4-13.64-10.14-8.59-15.92-24.17-24.83-39.83-24.83a40.59,40.59,0,0,0-24.33,8.09c-3.13,2.32-5.57,3.51-7.89,3.51-2.74,0-5.31-1.67-8.64-5.11A70.39,70.39,0,0,0,130,141.3Z"/></g><path class="cls-1" d="M291.29,189.85a60.47,60.47,0,0,1,5.52,3.2A60.47,60.47,0,0,0,291.29,189.85Z"/><path class="cls-1" d="M298.62,194.27c.6.43,1.19.86,1.77,1.3C299.81,195.13,299.22,194.7,298.62,194.27Z"/><path class="cls-1" d="M323.13,248.34c2.15-22.44-7.61-41.28-22.74-52.77-.58-.44-1.17-.87-1.77-1.3s-1.2-.82-1.81-1.22a60.47,60.47,0,0,0-5.52-3.2q-2.24-1.12-4.56-2.07a58.18,58.18,0,0,0-7.15-2.38,27.84,27.84,0,0,1-16.93-11.68c-16-22.48-44.92-28.86-67.37-14.91-6.13,3.81-9.16,2.68-14.09-1.57-41.15-35.5-104.52-19-124.43,31.95-1.09,2.79-4.83,5.3-7.9,6.44-27.71,10.3-45.12,29.32-48.5,59-1.17,10.35.76,21.16,2.05,31.67C7.08,324.48,41,351,78.93,346.07c5.49-.72,8.58.17,11.75,5.15,25.59,40.1,78.37,46.23,112.63,13.15,4-3.86,7.37-4.64,12.74-3,38.55,11.76,72.82-11.74,76.71-51.81.35-3.58,3.35-7.8,6.36-10.08,1.07-.8,2.1-1.63,3.11-2.46C317.28,284.47,324.82,268.64,323.13,248.34ZM290.25,282c-2.92,1.9-5.67,6.48-5.79,9.91-1.37,39.28-36.13,61.93-72.56,46.66-4.87-2-7.59-1.2-10.94,2.59C169,377.3,114.4,370.81,92.51,328.2c-2.74-5.35-6-5.51-11-4.45-40,8.41-74.53-20.1-74.33-61.17.14-29.91,17.63-52.72,46.58-60.25,5.11-1.33,8.17-3.3,9.91-8.75,15.62-48.84,79.09-64.14,115.83-27.74,6,6,9.54,6.22,16.37,1.24,21.11-15.38,50.56-8.36,63.42,14.85,3.23,5.84,7.13,8.39,13.42,9.47,21.39,3.65,38.2,19.31,41.62,38.13C318.34,251.51,309.92,269.21,290.25,282Z"/><path class="cls-1" d="M296.81,193.05c.61.4,1.21.81,1.81,1.22C298,193.86,297.42,193.45,296.81,193.05Z"/><path class="cls-1" d="M286.73,187.78q2.32.94,4.56,2.07Q289.06,188.73,286.73,187.78Z"/><path class="cls-1" d="M300.39,195.57c15.13,11.49,24.89,30.33,22.74,52.77,1.69,20.3-5.85,36.13-20.9,48.67,15-12.54,22.59-28.37,20.91-48.67C325.28,225.91,315.52,207.07,300.39,195.57Z"/><path class="cls-1" d="M244.91,374.78c-19.48-8.85-41.3,4-41.07,24.15.12,10.37,11.41,27.94,20.84,32.43,15.95,7.58,35.45-1.35,39.45-18.08C266.81,402,255.64,379.65,244.91,374.78ZM232.23,418c-12-.12-21.09-8.6-21-19.6s9.43-19.36,21.24-19.26c11.16.09,20.86,8.92,20.89,19C253.39,408.7,243.37,418.1,232.23,418Z"/><path class="cls-1" d="M282.29,426.32c-12.13-.11-22,9-22.16,20.49-.14,11.31,14.58,27.76,24.74,27.65,11.41-.13,21.89-9.71,22-20.12C307,440.77,294.45,426.44,282.29,426.32Zm-.65,33.75c-8-.11-14.16-5.9-14.13-13.21s6.63-13.31,14.2-13.21c8.13.12,13.92,5.69,13.83,13.33C295.45,454.93,289.89,460.17,281.64,460.07Z"/><g id="githublogo"><path class="cls-3" d="M241.22,257.87a106.11,106.11,0,0,0-18.58-1.77c-1.3,0-3.77.95-3.71-1.12.06-1.8,2.51-1,3.89-1,5-.12,9.93,0,14.89-.12,2.9-.07,5.79-.37,9.23-.61-1.86-1.57-3.44-1.34-4.91-1.36-6.23-.09-12.47-.21-18.7-.11-2.65.05-3.55-.48-3-3.41,2.89-14.88.79-28.86-8.23-41.39a6.9,6.9,0,0,1-1.29-5c.52-5.63-.31-11.14-1.31-16.67-.62-3.44-2.22-4.34-5.42-3.68A55.84,55.84,0,0,0,185,188.89a7.25,7.25,0,0,1-5.67,1.22,103,103,0,0,0-37.17-.09,7.85,7.85,0,0,1-6.08-1.14,52,52,0,0,0-21-7.47c-2.22-.29-3.12.38-3.56,2.66-1.22,6.29-1.93,12.55-.76,18.93.31,1.7.77,3.48-.53,5.11-9.72,12.17-10.82,25.95-7.27,40.46.7,2.89-.29,3.21-2.71,3.18-6.11-.07-12.22,0-18.33.1-1.72,0-3.49,0-5.36,1.41,1.46.11,2.46.25,3.46.25,7.26,0,14.51,0,21.76,0,1.27,0,3,.16,2.92,1.71s-1.87.87-2.89.86a97.41,97.41,0,0,0-19,1.71c-1.39.26-3,.25-3.94,1.69,1.28.91,2.37.3,3.45.12a137.71,137.71,0,0,1,20.48-1.94,5.92,5.92,0,0,1,5.65,2.92,34.44,34.44,0,0,0,10.44,9.92c6.89,4.37,14.5,6.69,22.49,8,.9.15,2.82.14,2.31,1.19-2,4-4.41,7.78-6.67,11.64-5.88-.3-12.11,1.43-17.4-2.44-4.2-3.08-8.09-6.57-12.21-9.76a11.79,11.79,0,0,0-10-2.72,28.67,28.67,0,0,1,7.71,8.28c2,3.25,3.91,6.55,6,9.77a20,20,0,0,0,17.81,9.9c3,0,6.93-1.34,8.82.63s.74,6.07.62,9.19c-.18,5.24,1.33,10.75-2.13,15.57-.5.7.15,1.06.86,1.22,4.84,1.06,11.12-3.76,11.21-8.8.13-7.37.08-14.76.15-22.14,0-1.67-.2-3.47,2-5.19.15,1.83.33,3,.33,4.22q0,11.07-.06,22.14c0,3.35.52,6.81-2.23,9.75,10.74.44,13.47-2.51,13.07-11.35-.35-7.49,0-15,0-22.52,0-.92-.41-2.44,1-2.4s1,1.54,1,2.47c.09,7.63.12,15.27.18,22.91.06,8.13,4,11.57,11.93,10.9-2.86-11.76-.93-23.63-1.39-36a2.9,2.9,0,0,1,1.72,3.16c.2,7.63.44,15.26.44,22.89,0,4.08,2,6.42,5.6,7.67,1.78.63,3.66,1,5.49,1.5.63.17,1.3.32,1.76-.22a1.27,1.27,0,0,0-.17-1.73c-2.37-2.53-1.92-5.68-2-8.69-.07-6.75.08-13.5-.1-20.24-.16-5.82,0-11.82-3.86-16.79-1.75-2.25-1.42-2.9,1.45-3.45,10.82-2.1,21.46-5.58,27.86-15,4.24-6.25,9.11-7,15.37-6.17a34.34,34.34,0,0,0,4.16.45c4.31,0,8.48,1.69,13.29,1.41C244,258.11,242.53,258.1,241.22,257.87Zm-135.63,22.2c-.59-.1-1.1-.36-1.11-1,0-.41.36-.63.78-.57.59.07,1.1.35,1.11,1C106.38,279.89,106,280.1,105.59,280.07Zm3.18,3.05a1.28,1.28,0,0,1-1.28-1.26c0-.51.16-.8.81-.79a1.28,1.28,0,0,1,1.16,1.26C109.51,282.81,109.32,283.18,108.77,283.12Zm3,4.19a1.68,1.68,0,0,1-1.49-1.59c-.06-.53.15-1,.79-1,1,0,1.31.69,1.46,1.54C112.49,286.82,112.33,287.38,111.74,287.31Zm3.66,4.16a1.74,1.74,0,0,1-1.69-1.82c0-.6.44-.87,1-.75a1.93,1.93,0,0,1,1.64,1.65C116.32,291.22,116,291.54,115.4,291.47Zm4.66,2.81c-.71-.14-1.48-.48-1.46-1.35s.83-.84,1.5-.85c.74.17,1.48.43,1.44,1.33S120.73,294.42,120.06,294.28Zm5.84.87c-.69,0-1.44-.19-1.42-1s.8-1.13,1.57-1.12a1.33,1.33,0,0,1,1.47,1C127.35,295,126.66,295.15,125.9,295.15Zm5.52-.65c-.62-.11-1.43-.11-1.38-1s.84-1.14,1.57-1.2,1.43.14,1.4,1S132.16,294.34,131.42,294.5Z"/><g id="oculos"><path class="cls-4" d="M229.64,230.23a30.58,30.58,0,0,1-.33-6.26c.12-1.6-.49-2.07-2.05-2-3.89.07-7.79,0-11.69-.05a5.38,5.38,0,0,0-3-.65q-50.15,0-100.3,0a4.15,4.15,0,0,0-3,.67c-4.51,0-9,.08-13.51,0-1.43,0-2,.36-2,1.89.11,1.87,0,3.75,0,5.62,0,3.88-.24,3.38,3.17,3.29,1.76,0,2.35.47,2.29,2.28-.12,3.54-.35,3.27,3,3.14,1.92-.08,2.45.58,2.39,2.42,0,1-.88,2.48.85,3.07,1,0,2,0,2.93-.1,1.24-.14,1.83.26,1.65,1.58-.07.52.07,1.07,0,1.58-.3,1.82.47,2.24,2.22,2.22q14-.13,28,0c1.87,0,2.46-.43,2.37-2.33-.16-3,0-3.19,2.85-3,2.06.13,2.9-.5,2.53-2.56-.4-2.25.35-3.4,2.8-2.93.29,0,.61,0,.9,0,1.43.25,1.8-.39,1.74-1.75-.1-2.48,0-5,0-7.45,0-1.21.23-1.77,1.6-1.71,2.56.1,5.12.13,7.67,0,1.5-.08,1.73.51,1.66,1.81-.11,2.18.1,4.38-.07,6.55s.47,2.95,2.57,2.55c2.26-.42,3.4.32,2.9,2.79-.43,2.18.47,3.07,2.65,2.64,2.47-.49,3.18.69,2.78,2.91-.37,2,.46,2.49,2.44,2.47,11.06-.1,22.13,0,33.19-.07.71,0,1.5.35,2.13-.28a.93.93,0,0,0,.21-.39c.22-1.44-.66-3.27.41-4.24s2.85-.18,4.31-.36a1.39,1.39,0,0,0,.62-.33c.8-1.57-.07-3.32.54-4.91l.26-.15c.82,0,1.66-.08,2.47,0,1.85.2,2.55-.5,2.48-2.41-.12-3.24-.31-3.12,3-3C229.31,232.9,229.86,231.89,229.64,230.23Zm-85.31,2.53-1.76,0v0l0,0,0,0h0c.24,5.25.23,5.26-5.39,5.39v0h0c0,.88,0,1.77.07,2.65.15,1.77,0,3-2.4,2.78-3-.21-3,0-3-3,0-.81,0-1.62,0-2.43h0v0h-5.39v0h0a25.3,25.3,0,0,0,.08,2.89c.27,2-.42,2.64-2.45,2.53-3-.16-2.89,0-3.06-3-.11-2,.57-2.73,2.53-2.46a25.47,25.47,0,0,0,2.9.09v0h0v-.42c0-5.24,0-5.25,5.39-5v0h0a17.89,17.89,0,0,0,0-2.64c-.3-2.17.36-3,2.74-2.91,2.07.06,3.05.46,2.73,2.69a22.61,22.61,0,0,0-.08,2.86h0v0h5.4v0h0c0-.59,0-1.18,0-1.76,0-4.06.1-4.11,4.11-3.73.93.09,1.25.41,1.35,1.34C148.43,232.63,148.36,232.74,144.33,232.76Zm74,0a2.19,2.19,0,0,1-.36,0h0c-.22,0-.44.05-.66.06-3.72.09-3.83.09-3.84,3.71,0,2.36-1.53,1.64-2.76,1.65a4.2,4.2,0,0,0,.81-.19,1.15,1.15,0,0,0-.81.19H209c-1.13.23-.83,1.14-.94,1.9-.18,1.17.52,2.47-.48,3.52h-4.88c-1-1.17-.45-2.57-.46-3.84,0-2.09-1.47-1.49-2.51-1.49s-2.51-.61-2.54,1.48c0,1.27.58,2.67-.45,3.84h0a31.51,31.51,0,0,0-3.37,0c-1.66.19-2-.57-2-2.07.05-3.39,0-3.4,3.36-3.39l2,0h0c.21-1.67-.41-3.42.29-5a1.2,1.2,0,0,1,.17-.34l5,0h0c.2-1.73-.43-3.53.35-5.2h0c0-.07.06-.13.09-.2h5c.83.8.49,1.84.42,2.74-.13,1.73.43,2.48,2.23,2.27a2.81,2.81,0,0,1,2.35.36H213c.22-1.79-.48-3.65.46-5.38h5A6.36,6.36,0,0,1,218.34,232.72Z"/><path class="cls-4" d="M137.14,232.79H131.7v5.45h5.45v-5.45Z"/><path class="cls-4" d="M207.17,232.74c-1,0-2.08,0-3.12.08h0c-.5,0-1-.06-1.35.52a2.14,2.14,0,0,1-.1.22,3.76,3.76,0,0,0,.12,2.67,4,4,0,0,0,1,1.45,2.6,2.6,0,0,0,.76.49h3.13v-1.56c0-1,0-2.08,0-3.12v-.72a2.73,2.73,0,0,1-.41,0Z"/></g></g></g><polygon class="cls-1" points="636.85 685.06 636.85 659.27 671.23 645.25 705.62 638.5 748.44 641.36 779.57 657.12 805.89 689.36 760.05 659.99 727.82 654.97 692.01 656.41 636.85 685.06"/><path class="cls-1" d="M759.8,660.66l-31.95-5-35.66,1.43-56,29.11V658.8l35-14.24,34.47-6.77,42.92,2.87,31.4,15.84,29.33,35.82Zm-11.54-18.61-42.6-2.84L671.5,645.9l-34,13.84V683.9l54.13-28.12.14-.07,36.11-1.43,32.23,5,.15,0,42.26,27.07-23.45-28.71Z"/><polygon class="cls-1" points="556.75 683.63 550.42 706.54 510.07 694.75 469.25 683.63 444.89 689.36 409.08 713.95 436.04 673.6 500.63 673.6 539.71 678.61 556.75 683.63"/><path class="cls-1" d="M435.66,672.89h65.06l39.19,5,17.7,5.21-6.7,24.27-41-12-40.66-11.07L445.18,690l-38.71,26.58Zm74.61,21.18,39.67,11.6,5.95-21.57-16.27-4.79-39-5H436.41l-24.72,37,32.8-22.52,24.77-5.88Z"/><polygon class="cls-1" points="855.32 865.84 851.02 819.5 838.13 764.03 823.08 705.11 819.5 638.5 779.57 591.23 863.03 584.78 899.73 642.08 896.14 745.27 878.24 828.31 855.32 865.84"/><path class="cls-1" d="M850.33,819.66,837.45,764.2l-15.07-59.05-3.56-66.38-40.67-48.14L863,584.08l.41,0,37,57.84-3.6,103.53-17.91,83L854.81,868Zm45.11-74.41,3.58-103-36.35-56.77L781,591.82l39,46.23.15.18,3.57,66.71,15,58.93,12.91,55.57,4.1,44.23,21.76-35.62Z"/><polygon class="cls-1" points="353.21 847.65 341.75 786.62 330.29 786.62 306.65 764.69 294.48 745.27 301.64 702.96 315.25 622.74 358.76 547.32 393.32 470.89 482.91 431.5 557.94 394.25 606.05 378.49 668.37 374.91 721.37 383.51 779.57 413.59 813.06 452.99 835.26 498.11 870.75 536.79 886.12 564.01 870.75 580.48 863.03 584.78 779.57 591.23 752.17 569.74 765.78 557.56 735.7 535.36 711.35 526.76 697.65 534.64 702.03 559.71 700.6 589.08 687.71 611.28 656.13 645.25 623.96 659.99 580.27 671.05 528.61 673.6 477.12 657.84 463.51 663.93 396.9 730.43 371.12 779.72 358.76 808.97 353.21 847.65"/><path class="cls-1" d="M341.17,787.32H330L306.17,765.2l-12.43-19.78,20.82-122.8,0-.12L358.12,547l34.56-76.44.11-.24,89.81-39.49,75.13-37.29,48.1-15.75,62.5-3.62h.08l53.07,8.6L780,413l33.58,39.5,22.25,45.18,35.42,38.6L887,564.11,871.26,581l-8,4.51-83.62,6.46-.27,0-28.27-22.18,13.59-12.16L735.37,536l-24-8.45-13,7.47,4.3,24.59,0,.08-1.45,29.61-13,22.35-31.66,34.09-32.52,14.95L580.3,671.75l-51.66,2.55h-.12l-51.36-15.71-13.24,5.92-66.45,66.34L371.76,780l-12.32,29.16-6.14,42.78ZM528.69,672.89l51.4-2.52,43.58-11,32-14.68,31.43-33.81,12.77-22,1.42-29.12-4.46-25.47L711.28,526l24.65,8.7,31,22.82L753.26,569.7l26.53,20.81,83-6.42,7.49-4.17,14.94-16-15.08-26.7-35.43-38.62-22.27-45.21-33.35-39.22-58-30-52.82-8.56-62.15,3.57-47.92,15.69L483.2,432.14l-89.35,39.29-34.48,76.24L315.92,623,295.21,745.13l12,19.11,23.36,21.68h11.77l10.79,57.44,4.94-34.49,12.43-29.47,25.79-49.29.05-.1L463,663.43l14.05-6.34Z"/><path class="cls-1" d="M610,1194a111.31,111.31,0,0,0,19.53-1.73l31.13-5.55a111.43,111.43,0,0,0,50.21-22.84l23-18.47a110.76,110.76,0,0,0,15.78-15.52l47.68-57.27a111.49,111.49,0,0,0,16.07-25.8l5.71-12.78a213.53,213.53,0,0,0,15.62-51.7l21.13-125.76-2.76-.47L831.91,981.82a210.72,210.72,0,0,1-15.41,51l-5.71,12.78a108.24,108.24,0,0,1-15.67,25.15l-47.68,57.28a108.28,108.28,0,0,1-15.38,15.12l-23,18.48a108.68,108.68,0,0,1-49,22.26L629,1189.46a108.85,108.85,0,0,1-26.92,1.39l-32.92-2.4a107.94,107.94,0,0,1-23.84-4.45l-10.85-3.32a108.87,108.87,0,0,1-45.42-27.47l-51.85-52.46a180.81,180.81,0,0,1-32.61-45.22l-16.12-31.72a62.87,62.87,0,0,1-5.86-17.43L355.31,854.94l-2.77.5,27.33,151.44a65.89,65.89,0,0,0,6.12,18.2l16.12,31.73a183.6,183.6,0,0,0,33.12,45.91l51.85,52.46a111.59,111.59,0,0,0,46.59,28.18l10.85,3.32a111.15,111.15,0,0,0,24.45,4.57l32.93,2.4C604.59,1193.85,607.29,1194,610,1194Z"/><path class="cls-1" d="M416.85,1194.68a1.4,1.4,0,0,0,2.08-.24c7-10.23,10.4-36.18,13.73-54.11,3.88-20.92-1.23-41.45-3.53-47.6l-2.63,1c2.22,6,7.17,25.82,3.4,46.1-3.24,17.48-6.47,43.51-13.27,53a1.37,1.37,0,0,0,.22,1.82Z"/><path class="cls-3" d="M713.64,711.44c6.23,6.1,4.52,24-7,30.86-7.57,4.53-19,4.1-25.25-2.81-3.13-3.44-3.92-7.46-2.8-12.62C688.39,718.45,705.23,710,713.64,711.44Z"/><path class="cls-3" d="M679.82,740.91c-3.54-3.9-4.59-8.5-3.3-14.48l.15-.7.54-.46c10.39-8.91,27.63-17.42,36.78-15.91l.65.11.48.47c3.26,3.19,4.75,8.92,4,15.33-1,8.09-5.22,15.13-11.4,18.84a24.42,24.42,0,0,1-12.32,3.28A20.72,20.72,0,0,1,679.82,740.91Zm.67-12.91c-.77,4.25,0,7.38,2.45,10.08,5.8,6.38,16.25,6.22,22.61,2.41,5.07-3,8.58-8.91,9.38-15.71.56-4.71-.32-9-2.31-11.35C704.9,712.75,689.74,720.29,680.49,728Z"/><path class="cls-3" d="M469.57,729.67c5.21,4.8.34,28-16.83,33.67-11.13,3.69-24.23,1.7-25.52-4.64C424.93,747.34,462.07,722.77,469.57,729.67Z"/><path class="cls-3" d="M429.55,764.69a8.5,8.5,0,0,1-4.39-5.58c-1.78-8.81,13.79-21.24,24-27,6.06-3.41,16.94-8.47,21.81-4h0c2.6,2.39,3.35,7.55,2,13.78-1.9,8.81-8.05,19.6-19.61,23.43a39.25,39.25,0,0,1-12.1,1.95C436.72,767.29,432.52,766.42,429.55,764.69Zm21.7-28.92c-12.68,7.14-22.94,17.66-22,22.51a4.43,4.43,0,0,0,2.37,2.78c4.48,2.6,13.07,2.72,20.42.28,9.88-3.27,15.24-13,16.82-20.32,1.07-5,.43-8.71-.75-9.8h0a3.64,3.64,0,0,0-2.44-.66C462.84,730.56,457.9,732,451.25,735.77Z"/><path class="cls-1" d="M687,747.5A27,27,0,0,0,673.67,749l-4,1.53a4.81,4.81,0,0,1-6-6.63c10.26-20.71,29.92-34.24,51.3-35.29,21.69-1.09,42.6,10.88,52.07,23.23,3.63,4.74,5.06,9.09,4,12.26-1.26,3.91-6.17,8.18-28.36,8.17C730.32,752.3,712.52,751,687,747.5Zm28.15-36.06c-20.36,1-39.1,13.93-48.92,33.74a2,2,0,0,0,2.51,2.76l4-1.53a29.81,29.81,0,0,1,14.68-1.69c67.19,9.13,79.63,3,81.08-1.45.72-2.23-.59-5.77-3.6-9.69-8.44-11-27.57-22.2-47.2-22.2C716.79,711.38,716,711.4,715.11,711.44Z"/><path class="cls-1" d="M661.63,737.24c1.46-3.38,15.18-33.26,48.08-39.85,26-5.21,52.94,6.13,68.71,28.88l2.3-1.6c-16.4-23.67-44.49-35.46-71.56-30-34.3,6.87-48.59,38-50.11,41.49Z"/><path class="cls-1" d="M538.49,751.4l2.44-1.37c-1.94-3.45-20-33.75-57.2-37.18-35.72-3.29-59,21.47-61.49,24.31l2.09,1.87c2.43-2.73,24.78-26.55,59.14-23.39C519.22,718.94,536.62,748.09,538.49,751.4Z"/><path class="cls-1" d="M429.87,768.17a49.62,49.62,0,0,0-6.86-2l-1-.2-.11-1c-.65-5.84,2.8-13.84,9-20.89,10.89-12.37,27.54-19.64,45.67-20,21.63-.4,42.76,11.43,55.11,30.76a4.65,4.65,0,0,1-4.81,7.1l-3.91-.78a12.88,12.88,0,0,0-5.66.15c-32.58,8.3-51.93,10.88-64.6,10.88A59.93,59.93,0,0,1,429.87,768.17Zm93.63-9.78,3.92.78a1.75,1.75,0,0,0,1.86-.76,1.84,1.84,0,0,0,0-2.08c-11.84-18.52-32-29.8-52.7-29.46-24.64.41-38.71,13.42-43.62,19-5.33,6-8.46,12.73-8.37,17.73a60.68,60.68,0,0,1,6.18,1.92c10.37,3.66,24.56,8.66,85.8-6.95a15.78,15.78,0,0,1,3.87-.48A15.34,15.34,0,0,1,523.5,758.39Z"/><path d="M693.74,731.92a6.46,6.46,0,1,0-6.46-6.46A6.47,6.47,0,0,0,693.74,731.92Z"/><path d="M693.74,719.7a5.76,5.76,0,1,1-5.76,5.76,5.77,5.77,0,0,1,5.76-5.76m0-1.4a7.16,7.16,0,1,0,7.16,7.16,7.15,7.15,0,0,0-7.16-7.16Z"/><circle cx="445.91" cy="745.27" r="6.46"/><path d="M445.91,739.51a5.76,5.76,0,1,1-5.76,5.76,5.77,5.77,0,0,1,5.76-5.76m0-1.4a7.17,7.17,0,1,0,7.16,7.16,7.17,7.17,0,0,0-7.16-7.16Z"/><polygon class="cls-5" points="779.57 591.23 805.89 616.29 839.65 603.76 880 611.28 870.75 584.78 779.57 591.23"/><polygon class="cls-5" points="477.12 652.83 425.99 645.25 389.38 616.29 422.31 652.83 477.12 652.83"/><path class="cls-5" d="M353.74,764.37c12-14.35,24.21-29.19,29.92-47,1.93-6,3.07-12.26,4.79-18.34,5.86-20.64,18.53-39.8,18.61-61.27"/><polygon class="cls-1" points="473.54 659.44 411.94 671.05 341.75 786.62 353.21 847.65 380.4 754.94 448.77 678.65 473.54 659.44"/><path class="cls-1" d="M341,786.49l70.33-115.81.17-.26,64.76-12.21-27,20.9L381,755.29l-28,95.36Zm71.37-114.81L342.49,786.75l10.87,57.9,26.36-89.91,0-.15,68.57-76.5,22.47-17.42Z"/><polygon class="cls-5" points="660.34 514.58 608.92 584.78 505.77 619.16 596.69 579.05 660.34 514.58"/><polygon class="cls-5" points="531.02 655.69 495.75 649.96 473.54 634.56 496.46 645.13 531.02 655.69"/><polygon class="cls-5" points="398.33 473.04 398.33 521.03 438.75 563.29 403.35 514.58 398.33 473.04"/><polygon class="cls-5" points="794.43 581.2 808.76 543.24 766.5 496.68 798.73 542.52 794.43 581.2"/><polygon class="cls-5" points="863.03 569.74 870.75 547.32 823.08 500.26 863.03 547.32 863.03 569.74"/><polygon class="cls-5" points="795.87 487.37 770.01 421.47 686.58 425.05 761.48 430.06 795.87 487.37"/><polygon class="cls-5" points="712.78 437.94 697.65 487.37 697.65 534.64 712.78 437.94"/><polygon class="cls-5" points="752.92 494.99 730.86 468.49 711.04 475.96 731.98 474.94 752.92 494.99"/><polygon class="cls-5" points="676.5 584.78 664.57 619.16 621.06 634.56 660.34 616.29 676.5 584.78"/><polygon class="cls-5" points="874.65 634.56 889.7 663.93 886.12 689.36 886.12 667.15 874.65 634.56"/><polygon class="cls-5" points="855.49 806.82 839.65 746.95 846.91 724.06 846.91 745.27 855.49 806.82"/><polygon class="cls-5" points="882.18 625.61 897.43 638.5 870.75 625.61 882.18 625.61"/><polygon class="cls-5" points="843.86 634.56 829.79 661.96 833.11 638.5 823.08 634.56 843.86 634.56"/><polygon class="cls-5" points="353.74 724.06 336.02 748.1 318.83 746.95 308.8 705.83 320.26 736.69 334.59 738.11 353.74 724.06"/><polygon class="cls-5" points="425.99 609.67 389.38 596.24 384.01 547.32 392.6 591.23 425.99 609.67"/><path class="cls-3" d="M671.36,825c-24.88-25-37.38-58.72-33.43-90.23,3-23.74,15.05-46.38,34-63.74A113.47,113.47,0,0,1,740,641.32c55.45-4,106.84,35.39,119.43,91.64l.1.7a124.06,124.06,0,0,1-26.72,84.07c-18.48,23.11-43.68,37.66-71,41a97.86,97.86,0,0,1-11.84.72C721.62,859.41,693.49,847.22,671.36,825ZM740.6,649.71c-47.26,3.41-88.69,41.23-94.32,86.1-3.63,29,8,60.08,31,83.24,23.38,23.48,53.8,34.89,83.51,31.29C813.52,844,854,792,851.13,734.46,839.31,682.43,791.84,646,740.6,649.71Z"/><path class="cls-3" d="M388.19,846.22c-24.43-24.32-36.75-57.55-32.95-88.88,2.77-22.9,14-44.75,31.67-61.5s40.25-27,63.55-28.73c51.8-3.89,99.7,34.18,111.44,88.49l.09.68c3,59.86-37.86,114-91.12,120.67a87.83,87.83,0,0,1-11,.68C434.2,877.63,408.58,866.52,388.19,846.22ZM451.08,675.5c-43.83,3.28-82.26,39.67-87.49,82.85-3.48,28.78,7.93,59.4,30.54,81.91,21.45,21.35,49,31.68,75.69,28.34,48.89-6.13,86.41-56.14,83.78-111.55C542.62,707,498.62,672,451.08,675.5Z"/><polygon class="cls-3" points="641.83 755.43 633.69 742.3 614.05 739.49 573.37 743.7 563.55 747.91 557.94 764.03 550.42 734 567.76 736.69 633.69 733.88 642.96 729.88 641.83 755.43"/><path class="cls-3" d="M547.61,731.43l20.27,3.15,65.33-2.78,12-5.18-1.57,35.71-11.22-18.09L614,741.61l-40.1,4.15-8.67,3.72-7.63,21.89ZM635,740.36l5.07,8.17.68-15.38L634.17,736l-66.32,2.82h-.21l-14.41-2.24,5,20.12,3.6-10.34,11-4.7,41-4.24.26,0Z"/><polygon class="cls-3" points="858.12 742.3 870.75 738.09 870.75 724.06 855.32 729.67 858.12 742.3"/><path class="cls-3" d="M852.86,728.33l20-7.27v18.55L856.57,745Zm15.78-1.26L857.77,731l1.9,8.55,9-3Z"/><polygon class="cls-3" points="550.42 800.56 539.71 795.6 539.71 787.19 556.75 779.72 550.42 800.56"/><path class="cls-3" d="M537.6,797V785.81L560.09,776l-8.36,27.52Zm4.21-8.39v5.7l7.3,3.37,4.3-14.15Z"/><polygon class="cls-3" points="653.14 793.07 661.74 787.19 661.74 780.17 650.52 780.17 653.14 793.07"/><path class="cls-3" d="M648,778.07h15.9V788.3l-12.15,8.3Zm11.69,4.21H653.1l1.47,7.26,5.07-3.46Z"/><path class="cls-1" d="M614.32,884.19l2.81,0c-.09-8.64,6.27-16,14.49-16.86a15.92,15.92,0,0,1,12,4,16.88,16.88,0,0,1,5.85,12.23l2.8-.11a20,20,0,0,0-6.8-14.24,18.81,18.81,0,0,0-14.08-4.65C621.69,865.48,614.22,874.12,614.32,884.19Z"/><path class="cls-1" d="M538,891.37l2.8-.06a18.29,18.29,0,0,1,34.27-9.65l2.43-1.4A21.09,21.09,0,0,0,538,891.37Z"/><path class="cls-1" d="M661.82,891.59c4.82-4.45,10-9.27,11.86-15.8,2.1-7.43-.78-15-4.18-21.57-6-11.56-13.35-22.52-20.08-33.66-1.41-2.32,2.23-4.44,3.63-2.12,8.19,13.55,19.24,27.59,24,42.82,4.35,14-2.27,24.08-12.26,33.31-2,1.83-5-1.13-3-3Z"/><path class="cls-1" d="M530.13,898.11c-6.77-8.81-12.08-19.11-11.4-30.52.72-11.87,9.06-20.46,15.91-29.48,1.61-2.13,5.27,0,3.63,2.12-6.07,8-14.13,16-15.2,26.46-1.13,11,4.19,20.84,10.69,29.29,1.65,2.15-2,4.25-3.63,2.13Z"/><path class="cls-1" d="M473.55,1004.49c.5,0,9.94-.11,14.79-7.82,4-6.4,3.08-15-2.29-21L484,977.52c4.54,5.05,5.36,12.31,2,17.65-4,6.42-12,6.51-12.41,6.51h0v2.81Z"/><path class="cls-1" d="M667.94,1045.67l-32.4,11c-8.63,2.94-16.44,7.08-25.61,4.54-1.8-.5-3.63-1.18-5.46-1.52-2-.38.52-.25-1.33-.09-3.25.26-6.44,1.74-9.67,2.24a45.21,45.21,0,0,1-13.14.17c-5.39-.85-11-3.3-16.17-4.88-3.9-1.18-8.09-2.06-11.82-3.72-11.22-5-21.88-12-32.65-17.93a2.16,2.16,0,0,1-1-2.38l5.25-22.56c.5-2.16,3.41-1.83,4.06,0s1.45,7,2.94,8.26c-1.08-.94-.29-.87,1.13-2.2l4.22-3.94c4.64-4.34,5.71-3,9,2.07.66,1,2.66,2.9,1,2.08a14.91,14.91,0,0,0,3.55.61c3.2.54,8.27.4,11.13,1.89,2.57,1.34-.59.69-.51.81-.4-.58.79-4.21,1-5,.33-1.8.25-5.61,1.87-6.91a2.17,2.17,0,0,1,3,0c1.89,1.73,2.93,11.43,2.27,13.53-.77,2.43-.65-1.15-1.41-.47.24-.22,1.92.24,2.25.24,3.16,0,6.45.7,9.59,1l10.68,1.15c1.52.16,6.12-.17,7.33.79s-.83.12-.7,1c-.15-1,.79-2.9,1.06-3.88l2.26-8.29a2.14,2.14,0,0,1,2-1.55h.49a2.15,2.15,0,0,1,2,1.54L606,1021c.15.63,1.34,3.71,1,4.25s-2.06.08-1.47-.69,5.81-1,6.87-1.17l11.29-1.93,9.53-1.62c.6-.1,2.33-.73,2.89-.49,1.53.63-.64.24-.38,1.19-.68-2.49.57-6.77.79-9.34.13-1.59-.11-3.7,1.12-4.9a2.12,2.12,0,0,1,2.55-.33c2.36,1.79,2.3,6.49,2.87,9.16a16,16,0,0,1,.65,3.07c-.38.57-1.95-.35-1.63-.7.89-1,4.33-1.29,5.62-1.68,3.72-1.11,9.25-1.7,12.56-3.75-1.57,1-.85,1.17-.36-.69.25-1,.91-1.84,1.17-2.8a9.33,9.33,0,0,0,.16-4.52c-.24-2.11,3-2.81,3.92-1.06l4.88,9.09c.57,1.08,2.49,3.2.77,2.65s3.19-1.86,4.2-1.86c1.34,0,1.66-1.44.4.67a3.51,3.51,0,0,0,.3-1c.34-1.84,1.06-3.69,1.58-5.49l2.68-9.34a2.16,2.16,0,0,1,2-1.54l.48,0a2,2,0,0,1,1.81,1c1,2.26,2.72,4.89,3.17,7.3l.79,1.82c.65,1.12,0,1.12-2.05,0,.08-.33,1.9-.88,2.11-1,1-.74,6.48-4,7.65-3.76-.11,2.4-.41,2.93-.88,1.6l-.68-1.45c-.75-1.09-1-2.59-1.74-3.66s1.56.32-.9-.39c-1.62-.46-3.31-.75-5-1.12s-3.52-.76-5.26-1.2c-5-1.29-10-2.81-15-4.21l-8.13-2.29a17,17,0,0,0-2.53-.71c-.65-.06,2-.67.16.18-5,2.28-9.72,5.81-14.88,7.53-4.49,1.5-5.59-2.61-9.44-5-12.47-7.57-25.45,2.06-28,15-.42,2.2-3.42,1.78-4,0-2.82-7.89-10-20.23-20-17.43-5.52,1.56-7.46,6.37-11.29,9.8-1.77,1.58-2.27,1.92-4.36.48-1.65-1.13-3-3.94-4.39-5.39-3.56-3.64-7.27-3.06-11.67-.54-2.25,1.29-3.95,3-6.28,4a92.45,92.45,0,0,1-15.57,5.46c-6.55,1.57-11.4,1.93-17.84.58-3.9-.82-13.83-2.85-8.69-9.22,2.94-3.65,10.57-5.38,14.59-7.22l21.48-9.83c10.42-4.76,21.56-8,32.36-11.86,4.91-1.74,9.78-3.74,14.85-4.95,6.25-1.5,11.41,1.42,17.43,3.43a34.41,34.41,0,0,0,4.5,1.5c-.21,0-1.33,1,.27-.38,2.94-2.59,7.84-4.27,11.3-6.15,3.29-1.79,7.49-3.19,11.26-2.6,4.76.75,9.89,3.53,14.4,5.14L666,969.17c11.09,4,22,8.4,33.48,11.19,14.16,3.46,28.28,7,42.56,9.93l-2.59,2.59L731,965.62c-.81-2.59,3.25-3.7,4.06-1.12l8.47,27.26a2.13,2.13,0,0,1-2.59,2.59C719.73,990,698.59,985.24,678.2,978l-45.53-16.23a58.54,58.54,0,0,0-5.57-2c-.27-.07-.53-.25-.8-.29,1.76.26,0,.19-.5.24a24.27,24.27,0,0,0-4.08.66c-5.05,1.43-10.26,6.84-15.74,8.21-4.58,1.15-12.35-3.09-16.7-4.71-3-1.11-2.49-.89-6.39.16-1.5.4-2.94.89-4.42,1.41l-22.9,8.09c-4.14,1.46-11.41,3.86-14.12,5-5.56,2.29-11,5-16.45,7.53l-11,5c-2.7,1.24-6.55,2.24-8.9,4.07-2.05,1.6-2.17,1.84.7,2.86a46.63,46.63,0,0,0,6.13,1.28c.47.11,4.46.72,2.57.71,5.11,0,10.79-1.77,15.6-3.5,3.58-1.29,7.7-2.21,11.07-4,2.11-1.11,6.51-4.91,10.42-5.89,4.79-1.2,7.72.24,11,3.69.93,1,3.84,3.39,4,4.85s-1.43,1.69-1.64.59c-.08-.42,1.44-2,1.68-2.26,5.88-7.41,14.85-12.9,23.89-7.28,6.39,4,10.69,11.57,13.16,18.5h-4c3.16-16.31,20.81-27,35.48-16.6a15.83,15.83,0,0,1,3.55,3c1.1,1.63,1.82.93-.37,1.37,2.24-.45,4.89-2.47,6.91-3.5,3.08-1.55,7.52-5.06,11.09-5.1,4.09-.05,9.39,2.6,13.3,3.7,4.37,1.23,8.73,2.56,13.13,3.69,3.57.91,9.74.84,12.61,3.24,1.73,1.46,4.67,7.52,3.54,9.78-1,1.93-9.51,6-11.64,6s-2.25-1.12-3.11-2.67-1.34-3.09-2-4.6a11.55,11.55,0,0,1-.94-2.17c-.32-2-1.39-.33.67-.47l2-1.54c-1.71,6-1.88,16.29-8.46,18.31-3.22,1-5.49,2.44-7.78-.29-2.66-3.17-4.3-8-6.26-11.68l3.92-1.07c.38,3.4,0,8.21-2.52,10.92s-8.22,3.14-11.48,4.12c-2.52.75-8.59,4-11.09,1.88-1.07-.91-1.1-3.56-1.35-4.73-.35-1.67-.91-3.41-1.09-5.11-.16-1.51-1.35-2.67.15-1.53l2.55-.33c.88-.86-.17-1.36.29-.13a10,10,0,0,1-.23,2.65l-.5,6c-.16,1.87.11,4-1.52,5.22-1.17.88-4,.8-5.29,1l-12,2L610.22,1028c-1.3.22-3.76,1.16-5.11.77-4-1.17-4.19-10.9-5-14.29l2,1.55h-.49l2-1.55c-.92,3.39-1.51,12.76-5.18,14.27-1.36.56-4.08-.3-5.43-.45L581,1027l-10.77-1.16c-1.24-.13-3.63,0-4.69-.82-1.47-1.18-1.25-3.58-1.46-5.29l-.75-6.36a7.62,7.62,0,0,1-.25-2.05c.32-1.45-1-1.2.21-.1h3c.68-.55-.34,2.62-.55,3.74-.35,1.88-.43,4.15-1.11,5.94-.78,2-.9,2.61-3.24,2.8-3.49.27-8-1.36-11.43-1.95-2.36-.4-4.53-.37-6.33-1.91-1.1-.94-1.9-2.88-2.69-4.08a14,14,0,0,1-1.55-2.36c.22-.91,2.11-.69,2.05.29-.1,1.49-6.88,6.81-8.28,7.74-6.26,4.14-7.7-5.49-9.2-9.7H528l-5.25,22.56-1-2.37,29.73,16.33c7.38,4,18.41,6.4,27.63,9.09,3.49,1,8.43,1.07,12.81.61,3.42-.36,8.44-2.84,12.52-2.55,5,.36,9.73,3.32,14.35,2.59,4-.63,8.18-2.79,12-4.08l36-12.27c2.57-.87,3.68,3.19,1.12,4.06Z"/><path class="cls-1" d="M686,771.91a30.14,30.14,0,0,0,5.77-.55l-.54-2.75a26.56,26.56,0,0,1-19-3.4,25.62,25.62,0,0,1-9.5-10.87l-2.54,1.19A28.05,28.05,0,0,0,686,771.91Z"/><path class="cls-1" d="M972.48,691.48l-39.23.68c46.9-43.64,92.17-85.75,137.44-127.85l1,.81c-19.5,32-39,64.09-59.31,97.44l38.17,0L916.31,786.21l-1.51-1.07Z"/><path class="cls-1" d="M224.6,702.61l39.24.68L126.4,575.44l-1,.82,59.31,97.43-38.16,0L280.78,797.34l1.51-1.07Z"/></g></g></svg>