<svg xmlns="http://www.w3.org/2000/svg" viewBox="0 0 132.58 132.58"><defs><style>.cls-1{fill:#6073ff;}</style></defs><title>wpp_1</title><g id="Camada_2" data-name="Camada 2"><g id="Camada_20" data-name="Camada 20"><g id="Camada_19" data-name="Camada 19"><path class="cls-1" d="M66.53,0a66.29,66.29,0,1,0,66,66.56C132.67,30,102.91.05,66.53,0Zm38.82,67.61C104,93.92,76.06,110.94,51.56,100.25a8.63,8.63,0,0,0-6.91-.35c-5.5,1.93-11.11,3.53-17.49,5.53C29.27,99.18,31.08,93.67,33,88.2a6.42,6.42,0,0,0-.29-5.52,37.72,37.72,0,0,1,6.17-43.39,38.46,38.46,0,0,1,66.46,28.32Z"/><path class="cls-1" d="M85.66,39.1a32.82,32.82,0,0,0-38.3.62C36.31,48,31.13,62.9,36.44,75.54c2.92,6.95,4.73,13,0,19.81l1.07.51A74.28,74.28,0,0,0,45,93.5a7.63,7.63,0,0,1,7.5.55c4.62,2.68,9.79,3.51,15.13,3.41a32.07,32.07,0,0,0,18-58.36Zm.26,38.84c-1.36,3.66-6.21,6.19-10.6,5.09-6-1.49-11.57-3.81-16.15-8.11a50.39,50.39,0,0,1-9.05-11.41,12.5,12.5,0,0,1-1.77-6.84,9.13,9.13,0,0,1,2.53-6.8c2.8-3,6.1-2.45,7.65,1.3,1.43,3.49,4,7-.2,10.5-1,.84,0,2,.59,2.94a28,28,0,0,0,10.26,9.13c2.22,1.19,3.91,1,5.26-1.19C76,70,78,69.42,80.51,71.21S87.92,72.57,85.92,77.94Z"/></g></g></g></svg>